<?xml version="1.0" encoding="UTF-8" standalone="no"?>
<svg xmlns:rdf="http://www.w3.org/1999/02/22-rdf-syntax-ns#" xmlns="http://www.w3.org/2000/svg" xml:space="preserve" height="26.609" viewBox="0 0 158.10037 26.609381" width="158.1" version="1.1" xmlns:cc="http://creativecommons.org/ns#" xmlns:dc="http://purl.org/dc/elements/1.1/"><g transform="matrix(1.25 0 0 -1.25 -244.84 362.03)"><path d="m311.19 271.45c0-1.3765 0.383-1.7575 1.909-1.7575v-0.557h-5.8755v0.557c1.6175 0.0875 1.998 0.645 1.998 2.2555v14.032c0 0.646-0.117 0.879-0.7335 0.9675l-1.2645 0.175v0.499l3.4955 1.202h0.471v-9.257c1.9385 1.1425 3.35 1.846 4.847 1.846 2.263 0 3.2615-1.4055 3.2615-4.364 0-2.666-0.0585-4.66-0.1465-6.2425 0.0585-0.791 0.4985-1.113 2.232-1.113v-0.557h-6.3455v0.557c0.7635 0 1.322 0.1465 1.6465 0.469 0.527 0.527 0.645 2.141 0.644 6.5055 0 3.1335-1.7035 3.5445-2.672 3.5445-0.969 0-2.027-0.469-3.467-1.377v-7.3845zm-4.9067 9.6398-0.469-1.289h-3.7315v-6.825c0-1.845 1.323-2.46 1.9385-2.46 0.648 0 1.2335 0.4975 1.793 1.464l0.469-0.44c-0.705-1.5225-1.849-2.401-3.202-2.401-1.7335 0-2.967 1.435-2.967 3.397v7.265h-1.3515v0.4695c1.1455 0.555 2.145 1.9035 2.82 3.719h0.5v-2.8995h4.2005zm-7.9389-10.75-3.9355-1.2025v2.345c-2.2045-1.5835-3.82-2.345-4.995-2.345-1.47 0-3.115 0.9975-3.115 2.9895v6.5025c0 0.7025-0.1755 1.025-0.793 1.2005l-1.0275 0.294v0.4375l3.789 0.821v-8.201c0-1.8165 1.323-2.6365 2.645-2.6365 0.9985 0 2.2915 0.6145 3.4965 1.612v6.2965c0 1.1415-0.148 1.3765-1.088 1.5525l-1.47 0.263v0.4095l4.525 0.705v-9.8715c0-0.821 0.2945-0.967 1.353-0.7625l0.6155 0.1175v-0.527zm-20.22-0.49935c1.7335 0 3.7005 1.758 3.7005 4.6875 0 3.34-2.0565 6.18-4.5225 6.18-1.941 0-3.7325-1.9915-3.7325-4.5105 0.001-3.5445 2.028-6.357 4.5545-6.357m-0.4115 11.571c3.5835 0 6.3155-2.665 6.3155-6.1505 0-3.4575-2.7305-6.1235-6.227-6.1235-3.6435 0-6.4345 2.6365-6.4345 6.0635 0 4.0425 3.2895 6.2105 6.346 6.2105m-24.656-9.5508c0-1.5235 0.4105-2.168 2.056-2.1675v-0.557h-6.1105v0.5565c1.7045 0 2.086 1.114 2.086 2.609v5.7405c0 1.1425-0.1775 1.406-0.8525 1.4935l-1.1455 0.146v0.498l3.525 1.231h0.4415v-2.343c2.1145 1.4935 4.0535 2.343 5.229 2.343 1.44 0 2.497-0.908 2.7905-2.343 1.969 1.23 3.7605 2.343 5.2005 2.343 2.114 0 2.9375-1.6105 2.9375-4.4225 0-1.8745 0-3.8365-0.089-5.624 0-0.616 0.353-1.672 1.558-1.672h0.9395v-0.556h-6.6095v0.556h0.2645c0.8515 0 1.2345 0.146 1.4985 0.41 0.44 0.4395 0.4695 2.4915 0.4695 4.513v2.284c0 2.256-0.764 3.34-2.2035 3.34-0.91 0-2.086-0.4395-3.9075-1.641l0.0005-6.736c0-1.465 0.353-2.169 1.822-2.169v-0.557h-6.023v0.557c1.645 0 2.233 0.9375 2.233 2.6085v5.4175c0 1.846-1.1465 2.52-2.174 2.52-0.8235 0-1.939-0.3815-3.9365-1.6985v-6.68zm-5.608 9.2272-0.4705-1.2895h-3.7305v-6.8245c0.0005-1.845 1.322-2.46 1.939-2.46 0.6465 0 1.234 0.497 1.7915 1.464l0.4705-0.438c-0.7045-1.524-1.8505-2.403-3.2015-2.403-1.734 0-2.9685 1.436-2.9685 3.3975v7.264h-1.3515v0.4695c1.1465 0.5565 2.1445 1.9035 2.8215 3.72h0.499v-2.9h4.201zm-14.187-9.814c0.001-1.2005 0.441-1.581 1.91-1.581h1.116v-0.556l-6.9625-0.001v0.557c1.498 0.03 1.968 0.644 1.968 2.197v7.1185l-1.968 0.702v0.499l3.349 1.1705h0.5875v-3.104h0.0585c1.469 2.402 1.8215 2.959 2.791 2.959 0.3525 0 0.441-0.0295 0.9985-0.2645 0.2945-0.1165 0.823-0.2345 1.528-0.4405l-0.705-1.756c-0.4405 0.059-0.999 0.205-1.557 0.468-0.323 0.1465-0.6755 0.2935-1.0275 0.2935-0.5295 0-0.8525-0.351-1.1465-0.7615-0.3825-0.528-0.705-1.0255-0.94-1.4645v-6.0355zm-8.9028 3.662c-0.558-0.322-1.028-0.5265-1.7335-0.819-1.792-0.7335-2.468-1.0265-2.4675-2.2275 0-1.054 0.852-1.7275 1.7335-1.7275 0.47 0 0.822 0.1465 2.4675 1.289v3.485zm-5.817 2.666c-0.0585 0.1755-0.0875 0.2635-0.0875 0.4095 0 1.026 2.438 3.3975 4.347 3.3975 0.8815 0 2.2625-0.409 3.085-1.551 0.4415-0.6165 0.4415-0.9965 0.4415-2.5195v-3.926c0-2.3415 0-2.87 0.763-2.87 0.324 0 0.706 0.03 1.44 0.6445l0.147-0.44c-1.586-1.288-2.4095-1.6105-2.9085-1.6105-1.204 0-1.322 1.3185-1.351 1.7865-2.027-1.6705-2.6155-1.7865-3.4085-1.787-1.7035 0-2.732 0.967-2.732 2.402 0 1.7875 1.5865 2.402 3.4665 2.8715 0.617 0.145 1.5865 0.4965 2.6145 1.1125v2.315c0 0.8195 0 1.2875-0.499 1.8735-0.3825 0.469-0.999 0.8495-1.6455 0.8495-0.969 0-1.8215-0.8205-1.8215-1.4355 0-0.176 0.029-0.293 0.1465-0.5565l-1.9975-0.966zm-16.78-6.2982c0-1.201 0.0875-1.611 2.409-1.611 3.9365 0 5.582 0.5565 7.4025 2.3725 1.088 1.055 2.439 3.31 2.439 6.328 0 2.167-0.618 4.5695-2.351 6.298-1.351 1.3465-3.437 2.372-7.55 2.372-1.204 0-1.9975-0.0885-2.3495-0.118v-15.642zm-2.439 13.123c0 1.9035-0.499 2.372-2.233 2.372h-0.588v0.557c1.0875 0.058 2.5275 0.117 4.1425 0.1755 1.6155 0.0585 3.408 0.0875 4.936 0.0875 7.7555 0 11.192-3.9235 11.194-8.757 0-4.4235-3.437-9.7245-10.87-9.7245l-9.4015-0.001v0.5565h0.4995c1.586 0 2.3205 0.4395 2.3205 2.1385v12.596z" fill="#00693e"/></g></svg>
