<?xml version="1.0" standalone="no"?>
<!DOCTYPE svg PUBLIC "-//W3C//DTD SVG 20010904//EN"
 "http://www.w3.org/TR/2001/REC-SVG-20010904/DTD/svg10.dtd">
<svg version="1.0" xmlns="http://www.w3.org/2000/svg"
 width="468pt" height="232pt" viewBox="0 0 468 232"
 preserveAspectRatio="xMidYMid meet">
<metadata>
Created by POTRACE VERSION, written by Peter Selinger 2001-2007
</metadata>
<g transform="translate(0,232) scale(0.022446,-0.022446)"
fill="#000000" stroke="none">
<path d="M2716 10243 c-4 -8 -13 -13 -21 -9 -8 3 -15 1 -15 -4 0 -6 -11 -10
-26 -10 -16 0 -37 -13 -59 -37 -19 -21 -35 -41 -35 -44 0 -4 -11 -10 -25 -13
-14 -4 -32 -17 -41 -31 -9 -14 -23 -25 -30 -25 -8 0 -14 -7 -14 -15 0 -9 -11
-20 -24 -25 -13 -5 -28 -15 -32 -22 -5 -7 -14 -27 -20 -45 -8 -22 -8 -35 -1
-42 6 -6 16 -11 22 -11 6 0 25 15 43 33 18 18 32 40 32 48 0 8 9 20 19 26 14
9 19 21 16 43 -2 17 -1 29 3 27 4 -2 25 -12 46 -22 35 -16 37 -18 20 -28 -10
-5 -21 -11 -23 -13 -1 -1 3 -9 10 -17 10 -10 18 -11 36 -3 13 6 21 17 18 24
-3 7 10 28 28 46 17 18 42 38 55 45 12 6 22 20 22 29 0 10 6 24 12 30 10 10
10 15 -2 22 -12 8 -11 11 8 16 12 4 22 9 22 13 0 3 -9 12 -19 18 -16 10 -20 9
-25 -4z"/>
<path d="M2740 10056 c-19 -5 -60 -35 -92 -66 -31 -30 -68 -63 -82 -73 -21
-14 -24 -22 -16 -41 7 -19 5 -26 -7 -30 -12 -5 -14 -1 -9 19 4 17 2 25 -6 24
-7 0 -35 -27 -63 -59 -27 -33 -53 -59 -57 -60 -4 0 -21 -12 -38 -27 -17 -16
-46 -43 -63 -61 -18 -18 -41 -43 -53 -56 -11 -13 -26 -36 -32 -52 -7 -16 -26
-35 -43 -43 -16 -7 -37 -25 -46 -40 -9 -14 -21 -30 -27 -36 -6 -5 -19 -22 -29
-37 -9 -15 -17 -36 -17 -47 0 -11 -13 -29 -30 -41 -19 -13 -30 -30 -30 -45 0
-13 -4 -26 -9 -30 -6 -3 -23 -25 -40 -50 -19 -28 -27 -51 -24 -64 3 -12 1 -21
-4 -21 -6 0 -18 -18 -28 -40 -10 -22 -26 -47 -36 -56 -10 -9 -21 -31 -24 -48
-3 -17 -6 -61 -8 -98 -2 -50 1 -68 10 -68 7 0 13 -6 13 -13 0 -8 8 -21 18 -30
10 -10 28 -17 40 -17 13 0 22 -6 22 -15 0 -10 10 -15 30 -15 22 0 30 -5 30
-18 0 -10 -9 -35 -20 -57 -11 -22 -20 -44 -20 -50 0 -5 -14 -19 -30 -30 -17
-11 -33 -31 -37 -43 -3 -13 -34 -52 -68 -85 -35 -34 -70 -79 -79 -99 -8 -21
-20 -38 -25 -38 -6 0 -11 -6 -11 -14 0 -8 -14 -17 -31 -21 -17 -4 -33 -13 -36
-21 -3 -8 -10 -14 -17 -14 -6 0 -24 -11 -40 -25 -23 -20 -27 -28 -18 -37 9 -9
15 -7 27 8 14 18 14 18 15 -5 0 -21 -3 -23 -33 -17 -26 5 -40 1 -60 -14 -14
-11 -32 -20 -40 -20 -9 0 -19 -4 -22 -10 -3 -5 -17 -10 -30 -10 -13 0 -27 -5
-30 -10 -4 -6 -24 -22 -46 -35 -21 -14 -45 -25 -53 -25 -8 0 -28 -11 -43 -25
-15 -14 -33 -29 -40 -35 -7 -5 -18 -8 -25 -5 -7 3 -26 -7 -43 -21 -16 -15 -45
-33 -62 -40 -18 -8 -33 -18 -33 -23 0 -5 -10 -11 -22 -14 -12 -4 -19 -9 -15
-13 3 -4 2 -14 -3 -24 -5 -9 -39 -37 -75 -61 -35 -24 -65 -47 -65 -51 0 -5 -9
-8 -19 -8 -11 0 -23 -9 -26 -20 -3 -11 -13 -20 -21 -20 -8 0 -14 -8 -14 -18 0
-11 -9 -27 -20 -37 -11 -10 -20 -25 -20 -34 0 -9 -15 -25 -33 -37 -18 -12 -41
-24 -52 -28 -11 -3 -28 -20 -38 -37 -9 -17 -17 -37 -17 -44 0 -8 -9 -19 -20
-25 -11 -6 -20 -18 -20 -26 0 -9 5 -12 13 -8 6 3 -1 -6 -18 -21 l-30 -27 -5
23 c-4 18 -7 19 -16 8 -7 -8 -15 -25 -19 -39 -4 -14 -16 -31 -26 -38 -9 -6
-20 -25 -24 -41 -3 -17 -14 -31 -26 -34 -10 -3 -22 -13 -25 -24 -4 -10 -14
-26 -21 -35 -8 -9 -12 -22 -7 -29 4 -7 3 -10 -4 -5 -6 3 -18 -1 -27 -10 -13
-13 -13 -19 -3 -31 10 -12 9 -17 -5 -25 -10 -5 -26 -28 -36 -51 -10 -23 -24
-56 -31 -74 -6 -17 -20 -33 -31 -36 -13 -3 -20 -18 -25 -46 -3 -22 -15 -48
-25 -57 -11 -9 -19 -27 -19 -40 0 -12 6 -25 13 -28 8 -3 5 -11 -11 -25 -13
-11 -32 -44 -43 -73 -10 -29 -19 -60 -19 -70 0 -9 -6 -23 -13 -30 -7 -7 -16
-21 -20 -30 -3 -9 1 -39 10 -65 8 -26 22 -55 30 -63 12 -12 16 -12 20 -2 4 9
9 10 18 2 9 -8 14 -6 18 5 5 12 11 13 33 3 22 -10 28 -10 32 0 2 6 9 12 15 12
7 0 35 12 62 26 31 16 90 68 153 133 57 58 110 118 118 134 8 15 18 27 23 27
5 0 28 18 52 40 24 22 50 46 57 52 7 7 28 30 47 51 19 20 35 42 35 47 0 5 9
15 20 22 11 7 20 18 20 24 0 7 9 14 20 17 11 3 23 13 27 24 3 10 18 34 32 53
14 19 32 45 39 58 7 13 10 28 6 34 -4 6 -3 8 4 4 6 -3 37 25 73 65 34 40 72
83 85 96 13 13 24 31 24 39 0 8 16 36 35 61 20 26 38 56 41 69 3 12 16 26 30
33 13 6 24 17 24 26 0 8 13 27 30 41 16 15 27 31 24 36 -3 5 -22 6 -41 2 -27
-5 -34 -4 -28 5 4 7 13 10 20 7 7 -2 17 0 21 4 5 5 21 11 34 13 16 2 30 14 40
35 8 17 25 36 37 43 13 7 25 21 29 32 3 10 30 43 59 73 29 29 57 64 61 76 4
13 7 28 6 34 -1 7 9 15 23 18 16 4 30 19 40 42 8 20 37 56 65 82 27 25 50 51
50 56 0 6 16 28 35 49 20 22 43 37 57 37 13 0 39 14 58 30 19 16 38 30 43 30
4 0 7 4 7 10 0 5 7 18 16 29 9 10 24 16 34 14 10 -3 39 4 64 16 25 11 46 25
46 30 0 6 5 11 11 11 6 0 16 6 24 13 7 8 44 17 80 20 37 4 72 11 79 16 6 5 26
12 44 16 25 5 32 12 32 31 0 14 -6 24 -14 24 -8 0 -18 -5 -21 -11 -4 -6 -13
-8 -21 -5 -7 3 -39 -4 -71 -14 -32 -11 -68 -20 -80 -20 -12 0 -23 -7 -25 -17
-2 -12 -16 -17 -56 -18 -36 -1 -62 -9 -82 -23 -16 -12 -36 -22 -45 -22 -8 0
-15 5 -15 11 0 7 12 31 28 55 15 24 30 44 34 44 3 0 9 13 13 29 3 17 21 41 41
56 19 14 34 34 34 43 0 9 9 28 20 42 11 14 20 31 20 38 0 6 5 12 10 12 6 0 10
5 10 11 0 6 9 24 21 40 11 16 35 36 53 43 22 9 36 23 40 40 3 14 10 26 14 26
5 0 18 9 29 20 13 11 26 43 33 77 7 32 21 75 32 96 10 21 25 40 33 43 7 3 25
23 39 45 14 21 26 46 26 55 0 9 14 33 30 54 17 21 30 41 30 45 0 4 11 18 25
31 14 13 25 29 25 37 0 7 8 22 18 33 10 10 29 42 44 69 14 28 29 74 33 102 4
29 11 56 16 59 6 3 32 53 60 111 29 61 50 119 51 141 0 20 5 45 10 55 5 10 5
24 -1 35 -6 11 -5 21 4 29 7 6 16 9 19 6 3 -4 6 0 6 8 0 8 -6 21 -13 29 -7 8
-19 20 -27 26 -11 8 -25 8 -50 0z m25 -26 c3 -5 1 -10 -4 -10 -6 0 -11 5 -11
10 0 6 2 10 4 10 3 0 8 -4 11 -10z m-123 -197 c2 -10 -9 -53 -23 -97 -15 -43
-31 -81 -36 -85 -5 -3 -27 -60 -49 -126 -32 -96 -43 -119 -57 -117 -12 2 -17
-3 -17 -17 0 -11 -8 -37 -17 -58 -10 -21 -30 -53 -46 -72 -21 -24 -27 -40 -23
-57 5 -20 3 -24 -15 -24 -12 0 -30 -11 -41 -25 -15 -19 -29 -25 -59 -25 -21 0
-39 5 -39 10 0 6 -11 10 -25 10 -13 0 -36 -5 -50 -12 -14 -6 -25 -15 -25 -19
0 -4 -10 -9 -22 -11 -15 -2 -24 -11 -26 -25 -2 -16 2 -23 13 -23 10 0 13 5 9
12 -5 7 -3 8 6 3 8 -5 18 -1 26 9 10 14 21 17 51 11 22 -3 44 -14 51 -25 9
-15 8 -26 -6 -52 -9 -18 -21 -36 -26 -39 -4 -4 -18 -23 -30 -42 -11 -20 -38
-61 -60 -92 l-38 -56 -57 3 c-36 3 -55 8 -54 16 2 6 -8 23 -22 36 -14 14 -25
33 -25 43 0 10 13 54 28 98 15 44 45 109 67 144 22 35 58 87 81 115 22 28 39
57 36 65 -2 7 -1 16 4 20 5 3 19 20 32 38 12 18 22 34 22 37 0 3 16 22 35 43
19 21 33 44 30 51 -3 7 0 10 5 7 5 -3 28 8 50 26 26 21 38 38 35 49 -3 11 4
19 25 27 20 8 30 18 30 32 0 12 3 20 8 19 4 0 16 3 27 7 11 5 34 24 52 42 18
18 33 37 33 44 0 6 12 28 28 50 15 21 32 37 37 35 6 -2 19 0 30 5 11 4 23 8
27 8 3 1 8 -7 10 -16z m-486 -390 c-4 -4 -11 -1 -16 7 -6 8 -10 19 -10 25 0 5
8 2 17 -8 9 -9 13 -20 9 -24z m334 -159 c0 -8 -4 -12 -10 -9 -5 3 -10 10 -10
16 0 5 5 9 10 9 6 0 10 -7 10 -16z m-170 -224 c0 -5 -4 -10 -10 -10 -5 0 -10
5 -10 10 0 6 5 10 10 10 6 0 10 -4 10 -10z m-460 -140 c0 -5 -5 -10 -11 -10
-5 0 -7 5 -4 10 3 6 8 10 11 10 2 0 4 -4 4 -10z m195 -160 c3 -5 1 -10 -4 -10
-6 0 -11 5 -11 10 0 6 2 10 4 10 3 0 8 -4 11 -10z m45 -20 c0 -5 -5 -10 -11
-10 -5 0 -7 5 -4 10 3 6 8 10 11 10 2 0 4 -4 4 -10z m-275 -380 c3 -5 2 -10
-4 -10 -5 0 -13 5 -16 10 -3 6 -2 10 4 10 5 0 13 -4 16 -10z m-98 -156 c-3 -3
-11 -3 -16 1 -6 3 -8 11 -5 17 4 6 10 6 17 -1 6 -6 8 -13 4 -17z m-177 -123
c0 -6 -4 -13 -10 -16 -5 -3 -15 -3 -21 1 -8 4 -7 9 2 15 8 5 17 9 22 9 4 0 7
-4 7 -9z m-122 -29 c2 -7 -3 -12 -12 -12 -9 0 -16 7 -16 16 0 9 5 14 12 12 6
-2 14 -10 16 -16z m42 -26 c0 -8 -4 -18 -10 -21 -5 -3 -10 -16 -10 -28 0 -12
-7 -33 -15 -47 -8 -14 -20 -36 -27 -50 -7 -14 -25 -41 -40 -61 -15 -20 -28
-42 -28 -48 0 -5 -9 -15 -20 -21 -11 -6 -20 -16 -20 -23 0 -7 -18 -32 -40 -57
-22 -25 -50 -64 -61 -87 -11 -23 -36 -56 -55 -72 -19 -17 -34 -37 -34 -45 0
-8 9 -18 20 -21 11 -3 20 -10 20 -15 0 -5 -13 -7 -29 -4 -24 5 -35 0 -65 -32
-19 -22 -36 -42 -36 -46 0 -4 -18 -26 -40 -49 -22 -23 -40 -48 -40 -56 0 -7
-9 -18 -20 -25 -11 -7 -20 -18 -20 -25 0 -6 -8 -25 -17 -41 -9 -16 -26 -33
-37 -38 -12 -5 -35 -31 -53 -59 -17 -27 -46 -67 -65 -88 -18 -21 -39 -44 -45
-52 -7 -7 -13 -26 -14 -42 0 -15 -3 -22 -6 -15 -2 6 -9 12 -14 12 -5 0 -9 -10
-9 -22 0 -12 -3 -19 -6 -15 -3 3 -21 -14 -40 -39 -19 -24 -34 -48 -34 -53 0
-5 -24 -27 -52 -48 -46 -33 -50 -38 -30 -41 12 -2 22 -6 22 -10 0 -4 -5 -14
-10 -22 -8 -13 -10 -12 -10 3 0 9 -7 17 -17 17 -9 0 -42 -27 -74 -59 -31 -33
-65 -71 -74 -85 -10 -14 -15 -33 -11 -41 3 -8 1 -15 -4 -15 -5 0 -11 4 -14 9
-3 5 -19 8 -34 7 -16 -1 -37 -8 -46 -16 -13 -10 -22 -11 -34 -3 -10 5 -18 22
-20 36 -2 19 -8 24 -19 20 -12 -5 -13 -2 -5 13 6 10 17 35 26 56 9 20 16 41
16 47 0 6 4 11 9 11 5 0 19 32 32 70 12 39 27 70 32 70 5 0 6 7 3 16 -3 8 -2
12 4 9 5 -3 15 7 21 22 6 15 22 53 36 83 13 30 32 69 40 87 8 17 12 37 7 44
-5 9 -2 10 10 6 12 -5 22 2 36 25 10 17 17 35 14 39 -2 5 7 16 21 25 14 9 25
24 25 33 0 9 16 31 35 49 21 18 33 37 29 44 -4 7 -3 8 4 4 6 -3 16 3 22 14 9
17 8 20 -7 20 -15 1 -15 4 6 20 13 11 29 20 37 20 7 0 19 10 25 22 7 12 21 30
33 40 12 9 26 17 33 18 6 0 15 10 19 22 4 13 16 37 28 55 12 18 27 33 34 33 6
0 12 5 12 10 0 6 -4 10 -10 10 -5 0 -10 5 -10 11 0 5 4 8 9 5 5 -3 11 4 14 15
4 16 11 20 26 16 11 -2 34 4 51 15 18 10 37 32 43 48 7 18 22 33 40 40 20 7
27 14 23 25 -3 10 -1 15 8 13 7 -2 50 24 94 57 45 32 82 62 82 66 0 4 9 11 20
14 11 4 40 26 64 50 23 24 54 47 68 50 14 4 38 20 54 36 15 16 37 29 48 29 12
0 28 5 36 10 8 5 21 10 28 10 6 0 12 -6 12 -14z m-290 -606 c0 -5 -4 -10 -10
-10 -5 0 -10 5 -10 10 0 6 5 10 10 10 6 0 10 -4 10 -10z m-833 -926 c-3 -3
-12 -4 -19 -1 -8 3 -5 6 6 6 11 1 17 -2 13 -5z"/>
<path d="M18200 9386 c-14 -7 -36 -19 -50 -27 -14 -8 -33 -20 -42 -28 -10 -8
-27 -11 -42 -7 -18 4 -28 1 -34 -11 -6 -10 -9 -73 -8 -140 1 -68 5 -126 9
-129 3 -4 23 1 44 11 21 9 60 40 86 69 27 28 64 83 82 121 18 39 35 81 37 94
2 19 -4 29 -27 42 -26 16 -34 16 -55 5z m10 -86 c0 -5 -4 -10 -10 -10 -5 0
-10 5 -10 10 0 6 5 10 10 10 6 0 10 -4 10 -10z m-90 -194 c0 -8 -4 -18 -10
-21 -5 -3 -10 3 -10 14 0 12 5 21 10 21 6 0 10 -6 10 -14z"/>
<path d="M15667 9188 c-7 -4 -20 -8 -30 -8 -9 0 -40 -16 -67 -35 -27 -19 -52
-35 -55 -35 -3 0 -19 -10 -35 -22 -17 -12 -30 -28 -30 -35 0 -7 -7 -13 -15
-13 -9 0 -32 -9 -53 -19 -20 -11 -50 -31 -67 -45 -16 -14 -39 -29 -50 -32 -11
-3 -35 -13 -52 -22 -18 -9 -33 -20 -33 -23 0 -4 -19 -18 -42 -32 -24 -14 -53
-39 -66 -56 -12 -17 -29 -31 -37 -31 -8 0 -19 -9 -25 -20 -6 -10 -27 -24 -48
-30 -20 -5 -54 -25 -74 -44 -21 -19 -38 -40 -38 -46 0 -6 -20 -19 -43 -29 -24
-11 -54 -32 -66 -47 -12 -16 -46 -46 -74 -66 -29 -21 -65 -46 -81 -56 -15 -9
-38 -24 -50 -34 -11 -9 -18 -19 -14 -23 4 -4 24 -11 45 -15 21 -4 46 -11 56
-15 16 -6 18 -4 15 16 -2 19 2 24 19 25 12 1 35 9 50 19 14 10 42 31 60 48 18
16 35 38 38 48 4 12 16 19 30 19 13 0 26 4 30 9 3 6 25 23 48 39 24 16 70 54
103 84 32 31 86 77 118 102 33 25 64 46 71 46 6 0 18 8 27 18 9 9 29 29 45 43
15 15 46 36 68 47 22 12 50 31 61 44 12 13 39 31 60 42 22 10 60 29 87 42 26
14 76 28 110 33 34 5 69 6 77 3 8 -3 20 -13 27 -21 9 -12 6 -21 -13 -44 -13
-16 -24 -38 -24 -50 0 -12 -9 -28 -20 -34 -10 -7 -38 -38 -62 -70 -23 -32 -55
-70 -71 -86 -16 -16 -40 -32 -53 -37 -14 -6 -24 -18 -24 -30 0 -11 -3 -20 -7
-20 -5 -1 -24 -24 -43 -51 -19 -28 -52 -59 -72 -70 -21 -11 -38 -24 -38 -30 0
-6 -5 -7 -10 -4 -6 3 -47 -31 -93 -76 -45 -45 -81 -86 -79 -91 1 -5 -1 -7 -6
-4 -5 3 -23 -4 -40 -14 -18 -11 -32 -24 -32 -30 0 -5 -4 -10 -10 -10 -5 0 -31
-16 -57 -36 -27 -20 -49 -38 -51 -39 -2 -2 2 -12 9 -23 7 -12 19 -18 28 -14 8
3 23 13 33 21 11 9 42 39 71 66 29 28 75 65 102 83 28 17 64 49 80 71 17 22
36 41 44 41 8 0 38 26 67 57 30 31 54 61 54 65 0 4 9 8 20 8 11 0 25 9 32 20
7 11 19 20 26 20 8 0 12 6 9 13 -3 7 0 19 7 27 6 8 22 20 36 26 14 6 37 16 52
22 15 6 34 24 42 40 8 16 26 37 40 46 15 9 26 21 26 27 0 5 5 15 10 22 6 7 24
29 40 51 17 21 30 44 30 51 0 7 7 18 16 26 9 7 14 22 11 35 -2 13 1 22 7 21 7
-1 11 13 10 35 -1 24 -11 50 -27 72 -26 33 -28 34 -93 32 -36 0 -71 -4 -77 -8z
m-280 -194 c-3 -3 -12 -4 -19 -1 -8 3 -5 6 6 6 11 1 17 -2 13 -5z m343 -114
c0 -5 -5 -10 -11 -10 -5 0 -7 5 -4 10 3 6 8 10 11 10 2 0 4 -4 4 -10z"/>
<path d="M18405 8890 c3 -5 8 -10 11 -10 2 0 4 5 4 10 0 6 -5 10 -11 10 -5 0
-7 -4 -4 -10z"/>
<path d="M20783 8832 c-13 -2 -23 -8 -23 -13 0 -5 -8 -4 -19 3 -15 9 -24 7
-47 -8 -16 -11 -47 -29 -68 -39 -21 -11 -82 -62 -134 -112 -52 -51 -102 -93
-111 -93 -10 0 -23 -14 -31 -35 -8 -19 -24 -45 -37 -57 -13 -12 -23 -28 -23
-36 0 -8 -13 -29 -29 -47 -16 -18 -30 -37 -32 -42 -2 -5 -28 -23 -58 -39 -32
-17 -62 -42 -71 -59 -9 -16 -24 -30 -33 -30 -9 0 -53 -36 -99 -80 -46 -44
-104 -97 -129 -118 -25 -20 -55 -37 -66 -37 -11 0 -26 -6 -33 -14 -6 -8 -18
-12 -26 -9 -8 3 -14 -1 -14 -8 0 -7 -10 -23 -22 -36 -16 -17 -19 -26 -11 -34
9 -9 21 -6 47 11 20 12 36 28 36 36 0 8 7 14 16 14 8 0 30 11 48 25 18 14 35
25 38 25 3 0 31 25 63 55 33 30 66 55 73 55 8 0 25 10 38 23 12 12 36 32 52
45 17 12 35 22 41 22 7 0 5 -12 -5 -32 -9 -18 -27 -46 -40 -61 -13 -16 -24
-36 -24 -46 0 -9 -34 -53 -76 -96 -41 -44 -86 -96 -99 -115 -13 -19 -51 -64
-84 -100 -39 -42 -59 -71 -55 -82 3 -11 -3 -19 -18 -24 -12 -3 -30 -17 -40
-30 -11 -13 -24 -21 -31 -19 -7 3 -17 1 -23 -3 -6 -4 -19 -21 -27 -39 -9 -17
-30 -41 -46 -53 -20 -13 -28 -26 -24 -37 5 -12 1 -14 -13 -9 -16 5 -50 -23
-159 -129 -77 -74 -145 -135 -151 -135 -7 0 -36 -19 -66 -42 -29 -23 -55 -44
-58 -48 -3 -3 -21 -16 -41 -28 -20 -12 -44 -22 -53 -22 -9 0 -25 -9 -36 -20
-11 -11 -29 -20 -40 -20 -11 0 -20 -4 -20 -8 0 -5 -12 -14 -26 -21 -14 -6 -42
-24 -62 -40 -20 -15 -59 -34 -87 -41 -27 -7 -54 -18 -60 -24 -5 -6 -28 -19
-50 -28 -22 -9 -74 -20 -115 -23 -41 -4 -92 -7 -112 -6 -21 0 -54 1 -73 2 -21
0 -35 6 -35 13 0 7 20 30 45 52 24 21 58 49 74 62 16 12 35 22 42 22 7 0 34
18 60 40 26 22 52 40 57 40 6 0 13 7 16 16 3 8 11 12 17 8 7 -4 23 6 38 23 14
17 53 45 86 63 33 18 71 39 86 46 14 7 36 25 49 39 13 14 29 25 36 25 7 0 17
6 21 14 4 7 42 31 83 54 51 27 74 45 72 56 -2 9 2 16 8 16 6 0 8 -4 5 -10 -3
-5 1 -10 10 -10 9 0 27 12 40 26 14 15 25 31 25 36 0 5 7 8 15 6 9 -2 30 10
48 25 18 16 58 49 90 74 53 41 57 47 45 65 -7 10 -17 19 -23 19 -5 0 -14 -8
-20 -18 -5 -10 -21 -28 -34 -39 -13 -12 -36 -28 -50 -36 -14 -7 -30 -19 -34
-25 -4 -7 -12 -13 -17 -13 -5 0 -24 -10 -42 -22 -18 -13 -49 -35 -68 -50 -19
-15 -75 -57 -123 -93 -48 -36 -91 -65 -96 -65 -4 0 -16 -9 -26 -20 -10 -11
-26 -20 -36 -20 -10 0 -24 -9 -31 -19 -8 -11 -48 -39 -89 -61 -40 -23 -99 -61
-129 -85 -30 -23 -104 -68 -165 -100 -60 -31 -114 -61 -120 -65 -5 -4 -23 -10
-40 -14 -16 -3 -35 -3 -41 2 -7 4 -20 23 -31 42 -15 28 -17 42 -10 68 8 26 15
32 38 32 15 0 35 7 43 16 9 8 17 21 17 27 1 7 1 19 0 27 -1 8 -6 32 -13 53 -6
20 -17 37 -25 37 -7 0 -13 5 -13 10 0 6 5 19 12 30 10 16 9 23 -11 44 -13 14
-32 28 -42 31 -10 3 -36 1 -57 -4 -21 -6 -52 -22 -68 -36 -16 -14 -36 -27 -45
-30 -8 -3 -23 -22 -32 -43 -13 -29 -14 -46 -7 -71 5 -18 20 -53 34 -78 15 -25
26 -58 26 -74 0 -15 5 -31 10 -34 6 -3 10 -15 10 -25 0 -11 9 -24 19 -30 11
-5 26 -24 35 -41 11 -22 12 -36 5 -52 -5 -12 -25 -32 -44 -44 -19 -13 -39 -23
-45 -23 -5 0 -10 -4 -10 -9 0 -5 -20 -18 -44 -30 -25 -11 -47 -25 -51 -31 -4
-6 -17 -15 -28 -21 -12 -5 -29 -13 -37 -17 -8 -5 -35 -19 -60 -30 -25 -12 -50
-22 -56 -22 -6 0 -17 -7 -24 -15 -7 -9 -29 -15 -52 -15 -31 0 -49 -7 -75 -30
-18 -16 -45 -30 -59 -30 -14 0 -34 -5 -45 -11 -15 -8 -29 -7 -52 4 -18 8 -58
24 -89 36 -43 17 -60 30 -71 54 -8 18 -18 43 -22 57 -4 14 -11 30 -15 35 -4 6
-10 38 -13 71 -4 37 -1 97 8 150 9 49 27 121 42 159 15 39 47 103 71 143 24
40 55 80 68 89 13 8 28 32 34 53 6 21 30 63 53 92 24 29 46 61 50 70 5 13 -2
22 -22 32 -25 13 -31 13 -58 -4 -17 -10 -37 -27 -44 -37 -8 -10 -24 -25 -36
-33 -11 -8 -53 -37 -92 -63 -39 -27 -78 -58 -88 -70 -10 -12 -43 -41 -73 -64
-30 -23 -84 -76 -119 -117 -35 -42 -94 -102 -130 -134 -36 -31 -74 -67 -85
-79 -11 -13 -28 -23 -38 -23 -10 0 -18 -6 -18 -14 0 -8 -45 -59 -100 -115 -54
-56 -104 -101 -109 -101 -6 0 -20 -10 -32 -22 -11 -13 -25 -34 -31 -48 -6 -16
-12 -20 -17 -12 -5 8 -22 -1 -55 -28 -27 -22 -59 -40 -71 -40 -13 0 -25 -4
-27 -10 -1 -5 -12 -11 -23 -13 -11 -1 -33 -12 -50 -22 -19 -13 -48 -20 -83
-21 -42 -1 -55 3 -63 18 -5 10 -7 34 -3 53 4 23 2 35 -5 35 -7 0 -9 9 -5 25 6
24 5 26 -21 19 -21 -5 -27 -4 -23 7 2 8 19 15 36 17 28 3 32 8 37 40 3 20 16
64 29 97 13 33 27 76 31 95 4 19 13 42 20 50 7 8 15 27 19 43 3 15 13 27 21
27 10 0 15 11 15 35 0 24 5 35 15 35 8 0 22 15 31 33 9 17 25 43 35 56 11 13
19 32 19 42 0 10 15 33 33 51 18 18 49 53 69 78 19 25 39 55 42 68 4 12 11 22
14 22 4 0 31 17 59 39 29 21 49 41 46 45 -4 3 3 6 14 6 11 0 31 9 45 19 13 11
40 22 60 26 22 4 53 22 77 44 22 20 43 49 46 64 6 22 2 34 -16 53 -12 13 -28
24 -35 24 -8 0 -38 -11 -69 -24 -30 -14 -65 -35 -78 -48 -13 -13 -42 -32 -65
-42 -23 -10 -49 -29 -57 -42 -9 -13 -23 -24 -33 -25 -9 0 -35 -22 -57 -49 -22
-27 -57 -60 -79 -74 -21 -13 -64 -48 -95 -78 -31 -30 -69 -58 -84 -62 -15 -3
-35 -15 -45 -26 -9 -11 -27 -20 -40 -20 -12 0 -25 -7 -28 -15 -3 -8 -22 -25
-42 -37 -21 -12 -54 -35 -74 -52 -20 -17 -60 -49 -88 -71 -29 -22 -68 -55 -88
-72 -21 -18 -45 -33 -55 -33 -10 0 -20 -6 -23 -14 -3 -7 -30 -26 -61 -41 -30
-16 -79 -50 -108 -77 -29 -26 -60 -48 -68 -48 -8 0 -35 -15 -59 -34 -23 -19
-54 -45 -68 -58 -14 -13 -34 -28 -45 -34 -11 -6 -36 -21 -55 -32 -19 -12 -42
-25 -50 -28 -8 -4 -24 -14 -35 -24 -11 -9 -32 -21 -46 -27 -18 -8 -30 -8 -37
-1 -6 6 -12 6 -16 -1 -4 -6 -16 -11 -26 -11 -12 0 -26 13 -36 31 -13 26 -15
49 -9 128 4 53 11 101 15 106 5 6 12 30 16 54 4 23 13 45 20 48 8 3 14 11 14
18 0 7 27 48 60 91 33 44 92 112 132 151 40 40 80 73 88 73 8 0 55 23 104 50
49 28 92 50 96 50 3 0 41 23 83 50 42 28 82 50 89 50 6 0 25 11 42 24 17 13
41 26 53 30 13 4 43 33 67 65 40 52 45 63 43 106 -2 46 -3 48 -42 62 -35 13
-47 12 -100 -3 -33 -10 -76 -26 -95 -36 -19 -10 -43 -18 -53 -18 -11 0 -42
-12 -70 -27 -27 -16 -65 -44 -84 -65 -18 -20 -53 -45 -76 -56 -24 -12 -92 -71
-157 -137 -108 -109 -117 -116 -147 -110 -17 3 -34 1 -37 -4 -3 -5 -25 -12
-48 -16 -24 -4 -53 -14 -66 -23 -13 -9 -28 -26 -33 -40 -5 -13 -17 -26 -27
-29 -10 -2 -22 -14 -27 -26 -6 -12 -25 -32 -44 -44 -19 -13 -42 -36 -52 -52
-9 -15 -34 -35 -55 -43 -22 -9 -55 -32 -75 -51 -20 -20 -60 -48 -88 -62 -28
-15 -51 -30 -51 -34 0 -4 -12 -14 -27 -22 -16 -7 -46 -27 -68 -44 -21 -16 -50
-40 -63 -52 -12 -13 -32 -23 -43 -23 -10 0 -27 -4 -37 -9 -9 -5 -30 -15 -47
-22 -16 -8 -32 -16 -35 -19 -3 -3 -16 -10 -30 -16 -14 -7 -60 -28 -102 -48
-42 -20 -81 -36 -86 -36 -6 0 -12 -7 -16 -15 -3 -8 -18 -15 -33 -15 -23 0 -25
2 -13 11 12 9 11 9 -5 3 -11 -4 -34 -9 -51 -11 -25 -4 -36 1 -57 27 -15 17
-27 41 -27 53 0 11 5 36 12 54 7 18 18 33 25 33 7 0 13 9 13 20 0 11 -6 21
-12 21 -7 1 -24 2 -38 3 -23 1 -24 5 -27 58 l-2 57 32 -6 c18 -3 41 -16 53
-29 l21 -24 11 24 c6 13 23 32 39 41 16 9 36 35 46 58 9 23 17 46 17 50 0 4
10 18 21 30 12 12 28 36 35 52 8 17 30 50 49 75 19 25 47 63 61 85 15 22 39
54 53 71 14 18 37 47 51 65 13 19 43 52 65 74 23 22 50 47 61 55 12 8 33 36
48 63 16 26 32 47 37 47 5 0 9 6 9 14 0 8 17 43 37 78 21 35 40 65 44 68 3 3
8 10 10 16 2 6 31 35 64 63 33 28 65 51 71 51 6 0 17 7 24 15 7 8 24 15 37 15
22 0 24 3 19 25 -4 14 -2 25 3 25 5 0 16 3 25 6 9 3 16 1 16 -5 0 -6 -7 -11
-15 -11 -8 0 -15 -4 -15 -9 0 -6 4 -12 10 -16 5 -3 37 3 71 15 34 11 75 20 91
20 15 0 96 23 180 51 84 28 165 58 180 67 15 9 28 23 28 32 0 8 3 25 6 37 5
18 1 25 -17 32 -16 6 -37 4 -64 -6 -22 -9 -49 -26 -60 -38 -11 -13 -38 -28
-60 -34 -22 -6 -52 -11 -66 -11 -16 0 -36 -11 -52 -30 -22 -24 -35 -30 -66
-30 -22 0 -43 5 -46 11 -4 6 2 21 14 33 12 12 21 30 21 40 0 10 12 21 30 27
17 6 30 15 30 20 0 5 12 9 26 9 23 0 25 2 14 16 -11 13 -10 16 8 21 12 3 19 9
16 14 -3 5 -12 9 -20 9 -8 0 -19 -11 -25 -23 -6 -13 -25 -32 -42 -42 -18 -11
-47 -33 -64 -51 -18 -17 -33 -37 -33 -45 0 -8 -12 -15 -29 -16 -15 -1 -46 -12
-67 -24 -21 -13 -52 -33 -68 -46 -16 -14 -33 -20 -38 -15 -4 4 -31 5 -59 2
-47 -6 -51 -5 -60 17 -5 14 -9 32 -9 41 0 9 -4 22 -8 27 -4 6 -17 16 -29 23
-13 6 -34 12 -47 12 -14 0 -26 -6 -29 -12 -2 -7 -2 1 0 17 3 19 20 45 46 69
22 21 54 46 70 56 16 10 48 36 71 57 22 22 51 45 64 52 12 6 22 16 22 21 0 6
-11 10 -25 10 -14 0 -25 4 -25 10 0 5 -10 14 -21 21 -16 8 -27 8 -44 -1 -16
-8 -21 -18 -17 -36 3 -17 0 -24 -11 -24 -9 0 -18 4 -21 9 -4 5 -14 8 -24 7 -9
-2 -23 -15 -30 -29 -7 -15 -22 -32 -33 -38 -12 -6 -23 -9 -25 -6 -3 2 -24 -14
-47 -35 -23 -22 -50 -47 -59 -55 -9 -8 -14 -22 -11 -30 5 -12 0 -14 -25 -9
-17 4 -33 3 -36 -3 -4 -6 -20 -8 -36 -4 -18 3 -30 1 -30 -5 0 -6 -13 -7 -39
-1 -22 5 -52 5 -71 -1 -18 -5 -40 -16 -49 -24 -9 -8 -25 -16 -35 -17 -11 -2
-19 -7 -18 -11 1 -5 2 -21 2 -37 l0 -30 70 5 71 4 -15 -27 c-8 -16 -30 -37
-50 -47 -20 -10 -38 -26 -41 -35 -3 -10 -20 -23 -39 -29 -19 -7 -41 -24 -50
-37 -9 -14 -35 -37 -57 -51 -35 -22 -56 -26 -140 -31 -70 -3 -104 -1 -114 7
-8 7 -15 21 -15 31 0 10 10 29 23 42 12 13 40 36 62 53 22 16 42 32 45 35 3 3
26 9 53 13 26 4 47 11 47 15 0 5 11 6 24 4 13 -3 36 2 52 10 25 13 28 20 28
67 l1 52 -45 -6 c-25 -3 -73 -20 -107 -37 -35 -16 -75 -41 -90 -53 -16 -13
-47 -33 -69 -44 -23 -12 -56 -39 -73 -61 -23 -28 -31 -49 -31 -78 0 -29 7 -47
29 -71 17 -18 42 -37 56 -42 18 -7 31 -6 45 2 14 9 22 9 33 0 7 -6 13 -20 12
-29 -1 -10 -5 -25 -9 -35 -4 -9 -18 -19 -31 -22 -13 -3 -40 -26 -61 -51 -20
-25 -41 -45 -48 -45 -6 0 -22 -16 -35 -35 -13 -19 -29 -35 -36 -35 -7 0 -35
-21 -61 -47 -27 -27 -72 -74 -99 -106 -28 -32 -65 -67 -83 -78 -19 -10 -38
-16 -44 -13 -6 4 -9 1 -6 -6 2 -7 -7 -24 -19 -37 -13 -12 -28 -23 -33 -23 -4
0 -20 -14 -35 -32 -15 -18 -31 -42 -36 -55 -5 -13 -13 -23 -19 -23 -5 0 -10 5
-10 12 0 6 -9 2 -20 -10 -12 -12 -24 -22 -29 -22 -4 0 -32 -25 -62 -55 -30
-30 -59 -55 -66 -55 -6 0 -23 -13 -36 -30 -14 -16 -30 -30 -36 -30 -6 0 -13
-10 -16 -23 -3 -12 -22 -33 -40 -46 -19 -13 -35 -30 -35 -38 0 -8 -4 -12 -9
-9 -5 3 -20 0 -33 -7 -13 -6 -37 -22 -55 -34 -17 -13 -36 -23 -42 -23 -7 0
-24 -11 -39 -25 -15 -14 -36 -26 -47 -26 -11 -1 -24 -1 -28 0 -4 1 -18 -5 -30
-14 -12 -8 -31 -15 -43 -15 -12 0 -27 -7 -35 -16 -7 -8 -21 -13 -31 -11 -10 3
-21 1 -24 -4 -3 -5 -16 -9 -29 -9 -13 0 -27 -4 -30 -10 -3 -5 -22 -10 -41 -10
-19 0 -42 -4 -52 -9 -9 -6 -30 -13 -47 -17 -16 -4 -35 -6 -42 -5 -7 1 -38 -6
-68 -14 -31 -9 -63 -14 -72 -10 -9 3 -39 0 -65 -7 -37 -9 -64 -9 -114 -1 -36
6 -74 19 -85 29 -15 13 -31 16 -80 11 -34 -3 -73 -1 -86 4 -13 5 -35 21 -48
36 -13 16 -25 38 -25 50 0 12 6 28 13 35 6 7 13 22 14 33 2 11 6 41 10 67 5
26 17 57 28 70 11 13 27 34 36 48 9 14 18 32 20 40 2 8 28 52 58 98 29 45 57
82 62 82 5 0 9 6 9 13 0 7 22 30 49 51 27 22 55 50 62 63 7 13 16 23 21 23 4
0 27 18 49 40 23 22 46 40 51 40 5 0 28 20 52 45 25 25 51 45 60 45 9 0 16 4
16 10 0 5 25 25 55 45 31 19 58 35 61 35 3 0 20 11 37 24 18 12 53 29 80 36
26 7 50 17 53 21 3 5 16 9 29 9 14 0 40 9 60 20 20 11 42 20 49 20 7 0 19 7
26 15 7 9 21 13 35 9 13 -3 28 1 38 10 9 9 21 41 27 72 7 33 8 60 3 65 -5 5
-37 9 -71 10 -57 1 -67 -2 -102 -30 -21 -17 -51 -31 -65 -31 -14 0 -39 -10
-55 -22 -17 -12 -30 -27 -30 -33 0 -7 -12 -12 -27 -12 -16 0 -49 -14 -75 -32
-27 -18 -48 -37 -48 -42 0 -5 -7 -9 -15 -9 -8 0 -31 -11 -52 -25 -21 -13 -56
-38 -79 -55 -26 -19 -58 -32 -90 -36 -27 -4 -55 -11 -61 -17 -7 -5 -10 -13 -7
-18 3 -5 -6 -9 -20 -9 -14 0 -28 -5 -31 -10 -3 -6 1 -17 10 -26 12 -12 13 -19
4 -30 -6 -7 -18 -16 -27 -19 -10 -3 -24 -18 -33 -33 -9 -16 -33 -36 -54 -46
-21 -10 -61 -42 -91 -72 -29 -30 -55 -63 -59 -74 -3 -11 -12 -20 -20 -20 -7 0
-30 -23 -51 -52 -21 -28 -38 -59 -39 -68 -1 -9 -11 -26 -23 -38 -12 -12 -22
-30 -22 -41 0 -10 -13 -32 -29 -49 -17 -17 -35 -49 -41 -70 -5 -22 -8 -71 -6
-109 2 -37 4 -77 5 -89 1 -11 10 -30 22 -42 11 -12 24 -20 28 -18 5 3 6 -5 4
-18 -4 -18 1 -28 17 -36 13 -7 38 -12 56 -13 19 -1 29 -4 22 -8 -8 -5 -2 -10
15 -14 15 -4 38 -4 51 -1 15 4 26 1 28 -6 3 -7 22 -11 49 -11 24 1 77 2 117 2
49 0 72 3 72 12 0 9 4 8 15 -1 10 -8 26 -10 52 -4 21 4 49 7 63 6 20 -2 22 0
10 7 -11 8 -4 9 23 4 25 -4 37 -2 37 6 0 8 8 10 21 6 13 -4 28 0 40 11 14 12
22 15 27 7 4 -6 18 -10 32 -8 14 2 45 10 70 18 25 8 59 17 77 20 21 4 35 1 44
-9 9 -12 9 -23 -2 -57 -8 -23 -13 -44 -11 -47 1 -3 7 -5 12 -5 6 0 10 -2 11
-5 0 -3 -3 -13 -7 -23 -4 -11 0 -25 11 -37 10 -11 24 -16 33 -13 9 4 13 2 9
-4 -4 -6 0 -14 9 -17 9 -3 29 -6 45 -6 19 0 38 9 52 25 12 13 34 40 50 58 15
19 27 39 27 45 0 6 55 66 123 133 67 68 124 124 127 124 3 1 14 6 25 10 11 5
37 22 57 38 21 17 35 34 31 40 -4 6 -1 7 6 3 7 -5 24 -5 37 -2 17 5 24 12 20
21 -3 10 1 14 12 13 9 -1 25 0 35 0 10 1 16 5 13 10 -2 4 17 16 42 26 26 10
67 28 92 39 25 12 61 32 80 45 19 13 58 34 85 47 28 12 58 25 67 28 11 4 15
13 11 28 -5 20 -3 21 20 15 17 -4 27 -2 27 4 0 6 6 10 13 9 6 -1 20 -1 30 0 9
0 25 10 34 21 10 11 23 20 29 20 6 0 18 7 25 17 8 9 33 25 57 35 23 11 48 28
55 39 6 10 17 19 24 19 6 0 20 11 31 24 10 13 34 32 53 40 19 9 52 28 74 41
22 14 47 28 55 31 8 4 25 16 37 27 12 10 26 16 32 12 6 -3 11 -15 11 -25 0
-10 -12 -25 -26 -32 -20 -10 -32 -28 -46 -73 -10 -34 -29 -69 -42 -80 -13 -11
-41 -53 -62 -94 -21 -40 -44 -75 -51 -78 -7 -3 -13 -15 -13 -28 0 -12 -6 -28
-14 -34 -8 -6 -16 -23 -18 -36 -3 -13 -1 -23 5 -22 5 1 11 -3 13 -8 2 -6 -9
-19 -26 -28 -16 -10 -30 -25 -30 -33 0 -8 -8 -29 -17 -47 -12 -23 -17 -59 -17
-126 -1 -88 0 -94 24 -111 14 -10 42 -27 64 -39 30 -17 53 -22 110 -21 39 1
87 7 106 12 19 6 51 18 70 26 19 9 41 16 48 15 6 0 12 4 12 9 0 5 -14 8 -32 6
-17 -2 -33 2 -35 7 -2 6 15 11 37 11 29 1 40 -3 40 -13 0 -8 3 -13 8 -11 4 2
19 10 35 17 15 8 27 21 27 28 0 8 5 11 10 8 6 -4 45 11 86 32 42 21 97 49 124
63 26 14 64 38 84 54 21 15 40 26 43 23 3 -3 29 10 58 29 30 19 57 34 61 34 4
0 35 18 70 40 35 22 66 40 70 40 3 0 17 9 30 19 15 12 20 22 14 26 -6 3 -8 10
-6 14 3 3 19 7 37 6 18 0 34 -6 36 -12 3 -8 -4 -13 -15 -13 -14 0 -21 -9 -25
-29 -4 -16 -2 -44 3 -62 7 -22 6 -37 -2 -46 -6 -8 -12 -42 -12 -76 -1 -36 5
-76 14 -94 8 -18 22 -33 31 -33 9 0 22 -7 29 -15 6 -8 9 -23 6 -33 -4 -11 1
-25 11 -34 10 -9 49 -21 86 -29 53 -10 73 -10 88 -1 10 7 26 12 34 12 9 0 37
16 62 35 25 19 70 46 99 60 29 14 73 38 96 54 24 16 59 46 77 65 19 20 39 36
43 36 5 0 23 10 41 23 18 12 34 24 37 27 3 3 17 11 33 19 15 8 27 21 27 28 0
8 6 13 13 11 8 -2 35 10 60 26 26 17 47 33 47 37 0 4 14 10 30 14 17 4 30 10
30 14 0 4 22 25 48 47 27 21 47 45 44 52 -2 7 2 10 11 6 9 -3 26 0 39 7 13 6
42 29 65 50 24 22 48 39 54 39 7 0 9 9 5 25 -4 14 -2 25 4 25 5 0 10 -7 10
-16 0 -14 2 -15 19 -3 10 8 39 29 65 47 25 18 51 30 57 27 7 -5 6 -11 -2 -21
-6 -7 -9 -20 -5 -29 3 -8 2 -14 -2 -12 -4 1 -16 -5 -27 -13 -11 -8 -35 -37
-52 -65 -18 -27 -48 -65 -67 -84 -23 -22 -37 -47 -41 -72 -4 -22 -10 -39 -14
-39 -4 0 -13 -19 -20 -42 -7 -24 -23 -59 -35 -78 -12 -19 -27 -48 -34 -64 -7
-16 -16 -58 -19 -93 -4 -42 -2 -63 5 -63 6 0 15 -15 21 -33 7 -21 30 -47 61
-70 27 -20 54 -37 60 -37 6 0 9 -4 6 -8 -3 -5 17 -10 44 -11 30 -1 54 4 61 12
7 7 25 11 40 9 18 -3 54 8 96 28 37 17 77 35 88 39 11 4 41 18 68 31 26 12 57
32 70 44 12 12 40 35 61 51 21 17 57 43 80 59 23 15 68 53 101 83 33 30 98 89
144 131 46 43 101 93 122 113 21 20 45 39 54 42 8 4 21 4 29 1 12 -4 13 -27
10 -117 -2 -62 -6 -123 -9 -137 -2 -14 -5 -32 -7 -40 -1 -8 2 -34 6 -58 5 -23
13 -45 17 -48 5 -3 9 -16 9 -29 0 -13 5 -36 12 -50 6 -14 15 -25 19 -25 4 0
15 7 23 16 9 8 16 10 16 4 0 -6 -7 -13 -15 -17 -14 -5 -14 -7 0 -23 9 -10 28
-21 42 -25 14 -3 35 -17 45 -31 11 -13 26 -24 33 -24 8 0 26 -5 42 -12 15 -6
53 -10 83 -9 30 1 71 7 90 12 19 6 42 13 50 16 8 4 18 6 22 5 4 -1 35 11 70
27 35 16 74 40 87 55 14 14 35 26 48 26 13 0 23 5 23 10 0 6 6 10 14 10 8 0
21 6 28 13 7 6 31 21 53 32 22 11 50 30 62 42 12 13 31 23 43 23 11 0 23 7 26
15 3 8 27 28 52 45 25 16 53 28 62 25 9 -3 29 6 46 20 16 14 31 24 34 22 3 -2
28 -14 55 -27 38 -19 69 -25 130 -27 44 -2 117 -3 162 -4 46 -1 88 3 95 9 7 6
27 10 43 11 17 0 38 1 47 1 10 1 38 12 62 25 25 13 65 29 88 36 24 6 76 26
116 45 40 19 77 34 82 34 5 0 25 9 44 21 20 12 36 24 36 29 0 4 14 13 30 20
17 7 30 16 30 20 0 4 14 10 30 14 17 3 46 17 64 31 18 14 40 25 48 25 9 0 29
12 46 28 16 15 47 41 68 58 22 17 52 34 68 38 17 4 48 26 70 49 23 23 68 66
101 94 33 29 67 59 75 67 8 8 20 21 26 28 6 7 35 36 65 64 30 28 65 65 79 82
14 18 30 32 36 32 6 0 18 8 27 18 10 10 14 22 11 25 -4 4 5 11 20 16 14 6 26
17 26 25 0 9 9 26 21 38 11 13 45 52 75 88 30 36 61 79 69 95 8 17 27 44 43
60 15 16 26 30 24 30 -2 0 0 9 3 20 4 11 22 50 41 87 19 38 34 76 34 86 0 11
22 61 48 113 27 52 57 108 67 124 10 17 41 49 69 71 28 23 76 54 106 69 46 23
52 29 35 35 -19 7 -19 7 2 14 14 5 20 12 16 22 -5 13 1 15 33 12 27 -2 39 1
39 10 0 8 7 19 15 25 8 7 23 22 34 34 10 13 21 35 23 50 3 16 5 38 5 50 0 12
7 23 16 25 13 3 13 5 1 13 -8 6 -24 9 -36 7z m-423 -372 c0 -5 -5 -10 -11 -10
-5 0 -7 5 -4 10 3 6 8 10 11 10 2 0 4 -4 4 -10z m-152 -260 c12 0 13 -3 5 -11
-7 -7 -23 -9 -38 -5 -14 4 -23 11 -19 17 3 6 13 8 21 5 8 -3 22 -6 31 -6z m28
-76 c-4 -13 0 -28 8 -37 12 -11 11 -15 -5 -25 -10 -7 -25 -12 -33 -12 -9 0
-19 16 -25 38 -6 20 -11 40 -11 45 0 4 9 7 20 7 11 0 20 4 20 10 0 5 7 7 16 3
10 -4 14 -13 10 -29z m-6146 -89 c0 -8 -4 -15 -10 -15 -5 0 -10 7 -10 15 0 8
5 15 10 15 6 0 10 -7 10 -15z m168 -63 c9 -11 25 -30 34 -41 10 -12 14 -21 9
-21 -5 0 -12 -11 -15 -24 -4 -18 -15 -25 -48 -30 -23 -4 -47 -11 -53 -15 -5
-5 -35 -14 -65 -21 -30 -6 -69 -17 -87 -23 -24 -8 -35 -7 -47 2 -9 8 -16 17
-16 22 0 4 18 20 40 36 34 24 39 32 34 56 -4 20 -2 27 9 27 8 0 18 -7 21 -16
5 -13 10 -13 36 6 19 13 30 30 30 45 0 22 3 24 50 21 36 -2 55 -9 68 -24z
m158 -49 c-3 -4 -9 -4 -12 0 -3 3 -2 11 2 18 6 11 8 11 12 0 2 -7 1 -15 -2
-18z m94 -40 c0 -7 -4 -13 -10 -13 -5 0 -10 7 -10 16 0 12 -3 14 -13 6 -7 -6
-18 -7 -26 -3 -11 7 -10 11 5 19 12 7 23 6 36 -1 10 -7 18 -17 18 -24z m5600
7 c0 -5 -4 -10 -10 -10 -5 0 -10 5 -10 10 0 6 5 10 10 10 6 0 10 -4 10 -10z
m-5685 -40 c3 -5 -1 -10 -9 -10 -8 0 -18 5 -21 10 -3 6 1 10 9 10 8 0 18 -4
21 -10z m-965 -31 c0 -5 -4 -9 -10 -9 -5 0 -10 7 -10 16 0 8 5 12 10 9 6 -3
10 -10 10 -16z m488 -19 c7 -11 10 -20 8 -20 -2 0 -11 3 -20 6 -9 3 -16 12
-16 20 0 8 3 14 8 14 4 0 13 -9 20 -20z m-478 -31 c0 -6 -4 -7 -10 -4 -5 3
-10 11 -10 16 0 6 5 7 10 4 6 -3 10 -11 10 -16z m764 2 c3 -5 -1 -25 -9 -44
-8 -19 -23 -37 -34 -40 -10 -2 -30 -22 -44 -43 -13 -22 -32 -45 -41 -53 -9 -7
-16 -22 -16 -32 0 -13 -6 -18 -22 -16 -14 1 -23 -4 -23 -13 0 -8 -13 -21 -29
-30 -16 -8 -38 -22 -49 -30 -11 -8 -28 -23 -39 -32 -10 -10 -21 -17 -25 -16
-5 1 -19 -4 -33 -9 -14 -6 -47 -32 -74 -57 -26 -25 -56 -46 -66 -46 -10 0 -32
-13 -50 -30 -18 -16 -39 -30 -47 -30 -8 0 -30 -11 -48 -23 -19 -13 -32 -27
-27 -32 4 -5 1 -5 -6 -1 -7 4 -25 -3 -43 -18 -17 -14 -37 -26 -45 -26 -7 0
-35 -16 -61 -36 -27 -20 -49 -40 -51 -45 -2 -4 -9 -6 -17 -3 -7 3 -16 1 -20
-5 -3 -6 -1 -11 4 -11 6 0 11 -7 11 -15 0 -12 -4 -13 -25 -3 -19 9 -28 9 -37
0 -7 -7 -18 -12 -26 -12 -8 0 -31 -13 -52 -30 -20 -16 -49 -34 -64 -39 -14 -6
-26 -14 -26 -19 0 -4 -52 -34 -115 -67 -64 -32 -118 -55 -122 -52 -3 4 46 56
108 117 63 61 126 118 141 126 15 8 35 28 43 44 8 16 27 33 40 36 16 4 39 27
61 60 20 30 42 54 50 54 8 0 14 5 14 10 0 6 -8 11 -17 12 -10 0 -24 1 -31 1
-8 -1 -11 5 -8 14 3 8 6 19 6 25 0 6 7 8 15 4 8 -3 22 -3 30 0 8 4 15 12 15
19 0 8 5 17 12 21 8 5 9 0 6 -14 -5 -17 -2 -22 14 -22 10 0 39 17 64 37 24 21
44 45 44 55 0 10 4 18 9 18 5 0 11 -5 13 -12 3 -7 19 1 43 22 21 19 58 54 83
78 25 23 49 42 53 42 5 0 32 23 61 51 28 27 64 57 79 65 15 8 35 14 44 14 8 0
15 6 15 14 0 8 -5 18 -10 21 -6 4 -8 11 -5 16 4 5 15 9 26 9 11 0 33 -9 48
-21 16 -11 39 -19 52 -17 15 2 25 12 29 28 3 14 14 26 23 28 9 2 17 -2 17 -8
0 -6 -7 -13 -15 -16 -8 -4 -13 -10 -10 -15 3 -4 12 -6 19 -3 8 3 17 15 20 27
6 21 7 21 17 4 10 -17 12 -17 36 -2 14 9 34 15 44 12 10 -3 22 -1 25 4 3 5 14
9 24 9 10 0 21 -4 24 -9z m5746 5 c0 -3 -4 -8 -10 -11 -5 -3 -10 -1 -10 4 0 6
5 11 10 11 6 0 10 -2 10 -4z m-5980 -16 c0 -5 -4 -10 -10 -10 -5 0 -10 5 -10
10 0 6 5 10 10 10 6 0 10 -4 10 -10z m-1645 -40 c3 -5 -1 -10 -10 -10 -9 0
-13 5 -10 10 3 6 8 10 10 10 2 0 7 -4 10 -10z m1452 -7 c-2 -5 -7 -16 -11 -27
-5 -15 -9 -16 -21 -6 -8 7 -15 19 -15 26 0 8 11 14 26 14 14 0 23 -3 21 -7z
m-97 -33 c0 -5 -4 -10 -10 -10 -5 0 -10 5 -10 10 0 6 5 10 10 10 6 0 10 -4 10
-10z m7 -42 c-3 -8 -6 -5 -6 6 -1 11 2 17 5 13 3 -3 4 -12 1 -19z m593 -9 c0
-5 -12 -7 -27 -3 -19 4 -24 3 -14 -4 10 -7 10 -11 1 -17 -6 -4 -9 -13 -6 -21
3 -8 0 -16 -7 -19 -6 -2 -33 -6 -59 -9 -40 -5 -48 -3 -48 10 0 13 7 15 30 11
25 -6 30 -3 30 13 0 14 7 20 21 20 18 0 19 2 9 15 -10 13 -9 15 8 15 12 0 24
5 27 10 5 8 11 7 21 -1 8 -6 14 -15 14 -20z m-1910 1 c0 -5 -4 -10 -10 -10 -5
0 -10 5 -10 10 0 6 5 10 10 10 6 0 10 -4 10 -10z m7258 -90 c-7 -10 -14 -18
-15 -16 -2 2 -1 11 3 20 3 9 10 16 15 16 5 0 4 -9 -3 -20z m68 -5 c3 -8 3 -19
-1 -25 -4 -7 -12 -7 -26 1 -16 8 -18 13 -8 25 6 8 16 14 21 14 5 0 11 -7 14
-15z m64 -5 c0 -11 -2 -20 -4 -20 -2 0 -11 3 -20 6 -9 3 -16 12 -16 20 0 8 9
14 20 14 13 0 20 -7 20 -20z m-7633 4 c-3 -3 -12 -4 -19 -1 -8 3 -5 6 6 6 11
1 17 -2 13 -5z m2074 -87 c-6 -6 -13 -8 -17 -4 -3 3 -3 11 1 16 3 6 11 8 17 5
6 -4 6 -10 -1 -17z m1050 -20 c-10 -9 -11 -8 -5 6 3 10 9 15 12 12 3 -3 0 -11
-7 -18z m4396 -4 c3 -8 0 -20 -6 -26 -9 -9 -16 -9 -31 1 -11 6 -21 12 -23 12
-3 0 -2 -10 0 -23 4 -21 1 -24 -27 -24 -28 0 -30 2 -16 12 9 7 16 19 16 28 0
9 11 19 25 23 14 3 23 10 20 14 -3 5 4 6 16 3 11 -3 23 -12 26 -20z m-5707
-17 c0 -2 3 -11 6 -19 4 -12 0 -14 -15 -10 -12 3 -21 9 -21 12 0 4 3 11 7 14
3 4 10 7 15 7 4 0 8 -2 8 -4z m3380 -25 c0 -6 -4 -13 -10 -16 -5 -3 -10 1 -10
9 0 9 5 16 10 16 6 0 10 -4 10 -9z m-3520 -31 c0 -5 -4 -10 -10 -10 -5 0 -10
5 -10 10 0 6 5 10 10 10 6 0 10 -4 10 -10z m129 -18 c9 -17 7 -18 -24 -8 -18
6 -31 14 -29 18 3 4 14 8 24 8 11 0 24 -8 29 -18z m2331 -22 c0 -5 -4 -10 -10
-10 -5 0 -10 5 -10 10 0 6 5 10 10 10 6 0 10 -4 10 -10z m5 -59 c-3 -12 -14
-21 -23 -21 -16 1 -16 2 1 14 9 7 17 19 17 26 0 7 3 11 6 7 3 -3 3 -15 -1 -26z
m-4677 -16 c-1 -26 -4 -32 -13 -25 -7 6 -10 21 -7 35 2 14 8 25 13 25 5 0 8
-16 7 -35z m-38 -70 c0 -8 -2 -15 -4 -15 -2 0 -6 7 -10 15 -3 8 -1 15 4 15 6
0 10 -7 10 -15z m2297 -20 c-4 -8 -16 -15 -27 -15 -11 0 -20 6 -20 14 0 8 10
16 23 18 12 2 24 3 26 1 2 -1 1 -9 -2 -18z m45 -25 c4 -24 1 -30 -14 -30 -11
0 -18 7 -18 18 0 10 5 23 12 30 7 7 13 12 14 12 1 0 4 -13 6 -30z m1160 -14
c3 -14 0 -30 -5 -35 -6 -6 -17 -11 -23 -11 -7 0 -16 -9 -19 -20 -3 -11 -15
-20 -25 -20 -12 0 -17 -5 -14 -13 3 -8 -4 -24 -14 -37 -17 -21 -21 -22 -40 -8
l-22 15 25 23 c14 14 25 35 25 50 0 14 7 35 15 46 9 12 14 14 15 6 0 -7 6 -20
14 -28 8 -8 18 -14 21 -14 4 0 5 9 2 20 -3 11 -2 20 2 20 4 0 13 -6 20 -12 10
-11 11 -8 6 15 -4 16 -3 27 3 27 5 0 12 -11 14 -24z m2042 -1 c3 -8 1 -15 -4
-15 -6 0 -10 7 -10 15 0 8 2 15 4 15 2 0 6 -7 10 -15z m-3304 -15 c0 -5 -5
-10 -11 -10 -5 0 -7 5 -4 10 3 6 8 10 11 10 2 0 4 -4 4 -10z m2340 -5 c0 -8
-7 -15 -15 -15 -8 0 -15 4 -15 8 0 5 3 12 7 15 3 4 10 7 15 7 4 0 8 -7 8 -15z
m1900 -3 c0 -10 5 -23 11 -29 6 -6 7 -13 1 -16 -5 -4 -14 9 -20 28 -6 20 -6
35 -1 35 5 0 9 -8 9 -18z m-4980 -2 c-8 -5 -18 -10 -22 -10 -5 0 -8 5 -8 10 0
6 10 10 23 10 18 0 19 -2 7 -10z m3958 -42 c-10 -10 -23 -16 -28 -13 -6 4 -10
10 -10 16 0 5 10 19 22 31 20 20 22 21 28 3 4 -12 0 -25 -12 -37z m72 17 c-7
-8 -19 -15 -26 -15 -8 0 -14 7 -14 15 0 10 10 15 26 15 22 0 25 -2 14 -15z
m-200 -50 c0 -2 -10 -10 -22 -16 -21 -11 -22 -11 -9 4 7 10 17 17 22 17 5 0 9
-2 9 -5z m188 -21 c-9 -9 -22 -14 -30 -11 -8 3 -4 8 12 15 14 6 27 11 30 11 2
1 -3 -6 -12 -15z m-55 -27 c-2 -4 -3 -17 -3 -29 0 -13 -4 -18 -9 -12 -5 5 -12
20 -16 32 -6 20 -4 23 12 20 10 -2 17 -7 16 -11z m1877 -1 c0 -8 5 -18 10 -21
6 -4 17 -2 24 4 7 6 16 8 19 4 4 -3 7 -9 7 -12 0 -3 -12 -7 -28 -8 -15 -1 -33
3 -39 9 -7 6 -13 17 -13 24 0 8 5 14 10 14 6 0 10 -6 10 -14z m-7535 -17 c5
-6 3 -9 -5 -9 -8 0 -25 3 -37 6 -13 4 -20 10 -17 16 3 5 15 6 27 2 12 -3 26
-10 32 -15z m45 1 c0 -5 -7 -7 -15 -4 -8 4 -12 10 -9 15 3 5 10 7 15 4 5 -4 9
-10 9 -15z m2380 10 c0 -5 -5 -10 -11 -10 -5 0 -7 5 -4 10 3 6 8 10 11 10 2 0
4 -4 4 -10z m984 -4 c-4 -9 5 -15 28 -19 18 -2 35 -1 38 4 3 4 12 4 20 -1 12
-7 12 -12 -3 -28 -13 -15 -31 -20 -68 -20 -33 0 -49 4 -49 13 0 7 6 16 13 19
10 5 10 7 0 12 -7 3 -13 12 -13 20 0 8 9 14 20 14 12 0 17 -5 14 -14z m56 10
c0 -3 -4 -8 -10 -11 -5 -3 -10 -1 -10 4 0 6 5 11 10 11 6 0 10 -2 10 -4z
m4020 -3 c0 -5 -12 -16 -25 -26 -14 -10 -25 -16 -25 -13 0 3 10 14 22 26 12
11 23 20 25 20 2 0 3 -3 3 -7z m-1766 -29 c3 -9 6 -23 6 -32 -1 -15 -3 -14
-15 2 -8 11 -15 26 -15 33 0 7 4 13 9 13 5 0 12 -7 15 -16z m-3426 -26 c-3 -7
-13 -15 -24 -17 -16 -3 -17 -1 -5 13 7 9 18 16 23 16 5 0 8 -6 6 -12z m85 5
c-7 -2 -19 -2 -25 0 -7 3 -2 5 12 5 14 0 19 -2 13 -5z m1177 -8 c0 -8 -7 -15
-16 -15 -14 0 -14 3 -4 15 7 8 14 15 16 15 2 0 4 -7 4 -15z m-40 -29 c0 -8 -4
-18 -10 -21 -5 -3 -10 3 -10 14 0 12 5 21 10 21 6 0 10 -6 10 -14z m-2056 -12
c4 -10 1 -14 -6 -12 -6 2 -14 10 -16 16 -2 7 1 12 6 12 5 0 13 -7 16 -16z
m5906 -15 c0 -5 -2 -9 -4 -9 -2 0 -9 7 -16 15 -11 13 -10 14 4 9 9 -3 16 -10
16 -15z m-2795 -9 c3 -5 -1 -10 -10 -10 -9 0 -13 5 -10 10 3 6 8 10 10 10 2 0
7 -4 10 -10z m45 1 c0 -5 9 -11 21 -14 12 -3 18 -10 14 -16 -3 -6 -14 -11 -24
-11 -10 0 -24 7 -31 15 -6 8 -9 19 -5 25 3 5 10 10 16 10 5 0 9 -4 9 -9z
m2125 -1 c3 -5 2 -10 -4 -10 -5 0 -13 5 -16 10 -3 6 -2 10 4 10 5 0 13 -4 16
-10z m-1415 -16 c0 -8 -4 -12 -10 -9 -5 3 -10 10 -10 16 0 5 5 9 10 9 6 0 10
-7 10 -16z m-2170 -4 c0 -5 -2 -10 -4 -10 -3 0 -8 5 -11 10 -3 6 -1 10 4 10 6
0 11 -4 11 -10z m4107 4 c-3 -3 -12 -4 -19 -1 -8 3 -5 6 6 6 11 1 17 -2 13 -5z
m173 -4 c0 -5 -7 -10 -16 -10 -8 0 -12 5 -9 10 3 6 10 10 16 10 5 0 9 -4 9
-10z m-2140 -34 c0 -3 -4 -8 -10 -11 -5 -3 -10 -1 -10 4 0 6 5 11 10 11 6 0
10 -2 10 -4z m-670 -14 c0 -4 -10 -13 -21 -21 -19 -11 -21 -11 -16 2 3 9 1 18
-6 21 -7 2 0 5 16 5 15 1 27 -2 27 -7z m-1652 -14 c-3 -7 -13 -15 -24 -17 -16
-3 -17 -1 -5 13 7 9 18 16 23 16 5 0 8 -6 6 -12z m-748 -12 c0 -3 -4 -8 -10
-11 -5 -3 -10 -1 -10 4 0 6 5 11 10 11 6 0 10 -2 10 -4z m-24 -51 c-11 -8 -24
-15 -30 -15 -5 0 -1 7 10 15 10 8 24 14 29 14 6 0 1 -6 -9 -14z m-936 -26 c0
-4 -4 -10 -8 -13 -4 -2 -13 4 -19 14 -10 15 -9 17 8 13 10 -3 19 -9 19 -14z
m2130 -9 c0 -5 -2 -10 -4 -10 -3 0 -8 5 -11 10 -3 6 -1 10 4 10 6 0 11 -4 11
-10z m520 0 c0 -5 -4 -10 -10 -10 -5 0 -10 5 -10 10 0 6 5 10 10 10 6 0 10 -4
10 -10z m-4124 -27 c-3 -4 -9 -4 -12 0 -3 3 -2 11 2 18 6 11 8 11 12 0 2 -7 1
-15 -2 -18z m1289 -63 c3 -5 2 -10 -4 -10 -5 0 -13 5 -16 10 -3 6 -2 10 4 10
5 0 13 -4 16 -10z m1475 -29 c0 -5 -6 -11 -14 -14 -8 -3 -17 -3 -20 0 -3 3 -3
10 0 14 3 5 12 9 20 9 8 0 14 -4 14 -9z m-1750 -31 c0 -5 -4 -10 -10 -10 -5 0
-10 5 -10 10 0 6 5 10 10 10 6 0 10 -4 10 -10z m2630 6 c0 -3 -4 -8 -10 -11
-5 -3 -10 -1 -10 4 0 6 5 11 10 11 6 0 10 -2 10 -4z m-2410 -15 c0 -6 -4 -12
-9 -15 -5 -4 -17 -3 -27 1 -16 6 -16 7 2 14 10 4 22 8 27 8 4 1 7 -3 7 -8z
m1255 -10 c3 -5 1 -12 -5 -16 -5 -3 -10 1 -10 9 0 9 2 16 4 16 3 0 7 -4 11 -9z
m175 -21 c0 -5 -4 -10 -10 -10 -5 0 -10 5 -10 10 0 6 5 10 10 10 6 0 10 -4 10
-10z m-206 -21 c-3 -5 -10 -7 -15 -3 -5 3 -7 10 -3 15 3 5 10 7 15 3 5 -3 7
-10 3 -15z m-1308 -46 c-3 -4 -9 -4 -12 0 -3 3 -2 11 2 18 6 11 8 11 12 0 2
-7 1 -15 -2 -18z m-916 -3 c0 -5 -2 -10 -4 -10 -3 0 -8 5 -11 10 -3 6 -1 10 4
10 6 0 11 -4 11 -10z m890 -95 c0 -8 -7 -15 -15 -15 -9 0 -12 6 -9 15 4 8 10
15 15 15 5 0 9 -7 9 -15z"/>
<path d="M15545 8680 c-3 -5 -1 -10 4 -10 6 0 11 5 11 10 0 6 -2 10 -4 10 -3
0 -8 -4 -11 -10z"/>
<path d="M4250 8655 c-36 -9 -44 -15 -42 -30 3 -16 1 -17 -12 -6 -12 10 -21 8
-53 -13 -21 -14 -43 -26 -48 -26 -6 0 -21 -13 -33 -30 -12 -16 -22 -34 -22
-41 0 -7 -9 -9 -21 -6 -15 4 -30 -3 -50 -24 -16 -16 -29 -35 -29 -41 0 -6 -30
-40 -67 -75 -37 -35 -71 -63 -75 -63 -4 0 -8 -11 -8 -24 0 -14 -4 -27 -9 -30
-5 -4 -12 0 -15 6 -3 8 -19 -3 -44 -30 -21 -24 -50 -51 -64 -60 -14 -9 -69
-58 -122 -108 -53 -50 -117 -102 -143 -115 -25 -13 -55 -32 -65 -41 -10 -10
-18 -24 -18 -31 0 -8 -22 -33 -50 -56 -27 -23 -50 -48 -50 -56 0 -7 -10 -17
-22 -20 -13 -4 -40 -23 -60 -42 -20 -20 -34 -42 -31 -49 4 -10 -3 -14 -21 -14
-14 0 -35 -9 -47 -21 -17 -17 -23 -18 -37 -7 -13 11 -15 11 -9 -4 4 -11 0 -19
-11 -22 -9 -3 -26 -4 -37 -1 -11 2 -25 4 -31 4 -6 1 -16 24 -22 53 -6 32 -6
61 -1 76 5 13 9 38 9 56 0 17 4 36 9 42 5 5 11 25 12 44 1 19 2 50 1 68 -1 19
-6 31 -12 27 -5 -3 -10 -2 -10 4 0 5 9 13 21 16 16 5 19 12 14 28 -4 12 -8 41
-9 65 0 26 -7 46 -16 52 -8 5 -26 9 -40 9 -14 0 -19 -3 -12 -6 8 -3 0 -12 -20
-23 -18 -9 -38 -26 -43 -37 -6 -12 -16 -27 -22 -35 -7 -8 -10 -23 -7 -35 3
-11 1 -24 -5 -27 -6 -4 -11 -23 -11 -43 0 -21 -11 -55 -27 -82 -15 -25 -39
-59 -55 -74 -15 -16 -28 -38 -28 -49 0 -12 -19 -45 -41 -74 -23 -30 -39 -60
-36 -68 4 -9 -4 -21 -19 -31 -13 -9 -28 -13 -33 -11 -5 3 -14 0 -20 -8 -7 -8
-10 -19 -9 -26 2 -7 -12 -20 -29 -29 -18 -9 -33 -23 -34 -31 -1 -8 -1 -18 0
-22 0 -4 -19 -26 -44 -49 -25 -23 -45 -50 -45 -60 0 -10 -6 -22 -13 -26 -7 -4
-18 -20 -24 -35 -7 -16 -17 -28 -23 -28 -5 0 -10 -6 -10 -12 0 -7 -36 -49 -80
-93 -44 -44 -80 -87 -80 -96 0 -9 -21 -37 -46 -62 -33 -33 -45 -53 -41 -67 3
-11 2 -19 -2 -19 -3 1 -16 -2 -28 -6 -13 -4 -23 -14 -23 -21 0 -8 -19 -34 -42
-59 -23 -25 -50 -45 -59 -45 -9 0 -33 -24 -55 -54 -21 -30 -46 -54 -54 -53
-11 1 -14 -6 -12 -26 2 -19 -3 -29 -15 -33 -10 -3 -25 -8 -33 -12 -8 -3 -18
-4 -22 -4 -5 1 -8 -6 -8 -17 0 -13 -7 -18 -24 -18 -13 0 -36 -12 -51 -26 -15
-13 -35 -23 -44 -20 -9 2 -25 -2 -35 -10 -19 -14 -19 -15 2 -21 12 -4 22 -12
22 -18 0 -6 -8 -7 -17 -3 -10 3 -20 7 -23 7 -3 0 -11 0 -17 -1 -7 0 -13 -10
-13 -21 0 -11 -6 -23 -14 -26 -7 -3 -29 -1 -47 3 -27 7 -35 15 -37 36 -2 16
-10 27 -18 27 -9 0 -14 -7 -12 -17 2 -10 -4 -19 -15 -21 -14 -3 -16 0 -8 21 8
20 6 27 -7 32 -9 3 -18 1 -20 -5 -2 -6 -15 2 -28 17 -13 15 -24 31 -24 34 0 4
7 10 16 13 9 3 26 6 39 6 13 0 27 5 31 11 3 6 0 15 -7 20 -12 7 -11 9 2 9 9 0
22 19 32 48 9 26 18 68 19 95 1 26 7 52 15 58 7 6 13 17 13 24 0 8 3 15 8 17
4 2 25 30 46 63 22 33 50 76 63 95 12 20 40 54 60 77 21 23 57 64 81 91 23 28
42 55 42 61 0 6 33 44 73 84 39 40 99 102 133 138 33 35 75 77 92 92 18 16 32
37 32 48 0 10 4 19 10 19 5 0 31 23 57 50 35 37 54 50 76 50 15 0 41 -7 57
-15 23 -12 30 -22 30 -45 0 -18 5 -30 13 -30 6 1 21 12 32 26 11 14 28 34 37
46 10 12 18 34 18 50 0 16 5 38 11 49 5 11 13 17 18 15 4 -3 16 9 26 27 11 18
20 39 22 47 1 8 3 24 5 35 1 11 -4 30 -10 43 -9 15 -22 22 -43 22 -17 0 -44
-8 -60 -17 -24 -14 -29 -23 -24 -42 5 -18 3 -22 -9 -18 -9 4 -16 3 -16 -1 0
-4 -19 -13 -42 -20 -23 -7 -48 -22 -56 -33 -7 -10 -18 -19 -24 -19 -6 0 -18
-6 -27 -14 -9 -8 -39 -37 -68 -65 -29 -28 -57 -51 -62 -51 -5 0 -12 -8 -15
-18 -4 -10 -22 -26 -41 -35 -19 -9 -35 -23 -35 -30 0 -7 -13 -21 -30 -30 -16
-10 -35 -30 -42 -45 -7 -15 -22 -28 -33 -30 -11 -2 -28 -12 -37 -22 -10 -10
-25 -21 -35 -24 -10 -3 -29 -23 -43 -44 -14 -20 -28 -45 -32 -54 -4 -10 -12
-18 -18 -18 -5 0 -10 -6 -10 -13 0 -8 -16 -22 -35 -33 -20 -10 -48 -37 -63
-59 -15 -22 -34 -45 -42 -51 -8 -7 -24 -20 -36 -30 -12 -11 -25 -30 -29 -43
-4 -14 -16 -32 -26 -40 -10 -9 -29 -38 -43 -65 -14 -27 -34 -55 -43 -62 -15
-11 -16 -15 -4 -23 10 -6 6 -13 -18 -27 -17 -10 -31 -25 -31 -34 0 -9 -16 -33
-35 -54 -19 -21 -36 -46 -37 -55 0 -9 -2 -21 -2 -27 -1 -6 -7 -19 -15 -28 -11
-13 -11 -16 0 -16 9 0 10 -3 4 -8 -5 -4 -20 -36 -33 -72 -12 -36 -22 -87 -22
-114 0 -43 4 -53 36 -82 19 -19 42 -34 49 -34 8 0 19 -9 25 -20 7 -13 21 -20
40 -20 15 0 30 6 32 12 4 10 10 10 29 2 15 -7 33 -8 47 -3 14 6 30 4 42 -3 15
-10 26 -8 55 8 21 10 52 33 71 50 19 17 34 36 34 42 0 7 6 12 13 12 6 0 23 9
37 20 14 11 32 20 40 20 8 0 29 16 45 35 17 19 35 35 40 35 6 0 22 10 37 23
14 12 35 27 45 34 16 11 16 12 1 7 -10 -4 -18 -1 -18 4 0 6 9 14 20 17 11 3
20 11 20 16 0 5 5 9 11 9 6 0 26 12 45 26 19 15 32 29 30 31 -3 3 11 18 30 35
19 17 34 35 34 42 0 6 9 19 20 29 11 9 17 23 14 30 -3 9 11 29 35 49 23 19 41
39 41 44 0 5 24 35 53 65 28 31 79 85 112 121 33 35 73 89 90 119 16 30 29 65
28 79 -2 20 -1 21 5 7 7 -16 13 -14 55 23 26 23 47 48 47 57 0 8 27 43 60 77
33 35 60 65 60 69 0 3 12 19 28 35 15 16 35 32 45 35 10 4 16 10 14 15 -3 4 0
14 6 23 7 9 22 19 33 23 12 3 29 4 38 0 9 -3 16 -17 16 -30 0 -22 -2 -23 -20
-12 -14 9 -22 10 -31 1 -8 -8 -8 -21 2 -50 7 -21 20 -47 29 -58 9 -11 21 -32
28 -47 6 -16 18 -28 27 -28 8 0 15 -2 15 -5 0 -4 -6 -18 -14 -33 -8 -15 -23
-36 -35 -46 -12 -11 -21 -25 -21 -31 0 -7 -21 -29 -46 -50 -26 -22 -43 -43
-40 -51 3 -7 -1 -17 -7 -21 -7 -5 -24 -25 -37 -47 -19 -31 -21 -42 -12 -57 7
-11 10 -19 6 -19 -3 0 -14 4 -24 10 -14 8 -22 3 -41 -25 -13 -19 -27 -35 -30
-35 -4 0 -19 -19 -34 -42 -15 -24 -39 -55 -52 -70 -14 -14 -23 -32 -21 -40 3
-7 -7 -29 -22 -48 -15 -19 -39 -61 -54 -92 -14 -32 -30 -58 -36 -58 -5 0 -10
-13 -10 -28 0 -16 -7 -44 -16 -62 -9 -18 -19 -52 -22 -76 -3 -34 -1 -45 12
-50 9 -3 16 -17 16 -33 0 -19 10 -32 35 -48 21 -14 37 -19 40 -12 4 5 21 7 39
4 23 -5 36 -2 45 9 8 9 18 16 23 16 5 0 6 -4 3 -10 -3 -5 -2 -10 3 -10 5 0 12
3 15 7 4 3 1 13 -6 21 -10 13 -8 14 16 8 15 -3 46 -1 68 6 23 6 43 17 46 24 3
7 11 10 18 8 7 -3 16 -1 20 5 3 6 1 11 -4 11 -6 0 -11 7 -11 16 0 14 1 14 16
0 8 -9 20 -14 25 -11 5 4 9 8 9 11 0 2 -12 9 -26 15 -20 7 -40 5 -83 -9 -31
-11 -70 -22 -86 -25 -17 -3 -37 -2 -44 2 -7 5 -15 26 -18 48 -4 27 1 53 15 84
11 24 30 69 42 99 12 30 27 65 32 77 6 11 7 26 4 32 -4 6 -1 11 7 11 8 0 18
11 21 25 3 13 15 33 27 43 11 11 21 29 22 40 0 11 5 20 11 19 5 -1 14 7 20 18
6 11 24 39 38 62 15 23 35 47 45 55 10 7 36 35 58 62 21 27 50 61 62 74 13 14
23 29 23 33 0 5 -9 9 -19 9 -11 0 -23 5 -27 12 -5 7 -2 9 9 5 8 -3 21 1 27 9
7 8 16 14 21 14 5 0 9 -7 9 -15 0 -8 2 -15 5 -15 3 0 13 8 23 18 17 17 17 20
4 29 -10 5 -12 14 -8 22 7 10 10 10 16 1 4 -7 13 -9 20 -5 6 4 10 18 7 30 -3
18 1 25 19 29 12 3 26 15 29 26 3 11 11 20 17 20 5 0 8 -7 4 -15 -3 -10 1 -15
14 -15 10 0 22 4 25 10 3 5 23 14 43 20 20 5 49 21 64 35 15 14 34 25 43 25 9
0 27 11 40 24 12 13 40 34 62 47 21 12 46 31 55 42 9 10 22 16 27 12 7 -3 11
3 11 14 0 15 6 21 21 21 12 0 42 16 66 36 24 19 41 40 38 45 -4 5 0 9 7 9 7 0
0 7 -16 15 -24 13 -31 13 -37 3 -5 -7 -4 -14 1 -16 6 -2 10 -8 10 -13 0 -4
-12 -6 -27 -3 -22 4 -36 -2 -68 -31 -22 -20 -56 -45 -77 -56 -20 -10 -39 -23
-43 -29 -3 -5 -17 -10 -31 -10 -16 0 -36 -12 -54 -32 -20 -21 -33 -29 -40 -22
-6 6 3 20 28 39 20 16 41 35 45 42 4 7 14 13 21 13 8 0 22 12 32 27 10 16 56
65 103 110 47 45 157 150 243 235 87 84 187 180 223 213 36 33 65 66 65 72 0
7 6 13 13 13 7 0 31 16 53 35 21 19 42 35 45 35 3 0 18 11 33 25 15 14 39 25
55 25 15 0 36 -9 45 -19 16 -18 16 -22 2 -50 -9 -16 -16 -37 -16 -46 0 -9 -8
-18 -17 -22 -10 -4 -32 -19 -50 -34 -17 -15 -45 -35 -62 -45 -16 -10 -36 -31
-43 -48 -7 -17 -29 -48 -50 -69 -21 -22 -38 -45 -38 -51 0 -7 5 -17 12 -24 9
-9 7 -12 -10 -12 -12 0 -22 5 -22 10 0 6 -12 3 -27 -7 -16 -10 -56 -39 -90
-65 -34 -27 -67 -48 -73 -48 -5 0 -10 -4 -10 -10 0 -5 -5 -10 -11 -10 -6 0
-34 -19 -63 -42 -28 -23 -55 -45 -60 -49 -5 -5 1 -17 15 -28 15 -12 29 -16 39
-11 8 5 30 21 47 38 18 16 30 32 25 36 -4 4 -2 7 3 5 6 -1 18 1 28 5 9 5 17
14 17 22 0 8 9 14 21 14 11 0 34 10 50 23 16 12 44 34 62 48 18 14 40 28 50
32 9 4 17 11 17 17 0 5 5 10 12 10 6 0 32 20 57 44 25 24 66 62 90 85 24 23
52 41 62 41 11 0 20 10 24 30 4 18 17 35 33 42 14 7 28 19 30 27 3 8 0 11 -7
7 -6 -4 -11 -4 -11 1 0 4 25 28 56 53 31 25 65 54 75 65 13 13 18 28 14 42 -3
12 1 28 10 36 8 9 17 43 20 80 4 46 2 67 -7 74 -7 6 -27 12 -43 15 -17 2 -51
-1 -75 -7z m-110 -115 c0 -5 -5 -10 -11 -10 -5 0 -7 5 -4 10 3 6 8 10 11 10 2
0 4 -4 4 -10z m136 -74 c-3 -14 -13 -26 -21 -26 -8 0 -15 4 -15 9 0 6 5 13 10
16 6 3 10 16 10 28 0 15 3 18 11 10 7 -7 9 -23 5 -37z m-53 -53 c-7 -2 -19 -2
-25 0 -7 3 -2 5 12 5 14 0 19 -2 13 -5z m-313 -70 c0 -5 -5 -15 -10 -23 -7
-12 -9 -10 -7 8 0 12 5 22 9 22 4 0 8 -3 8 -7z m280 -53 c0 -5 -5 -10 -11 -10
-5 0 -7 5 -4 10 3 6 8 10 11 10 2 0 4 -4 4 -10z m-240 -240 c0 -5 -7 -7 -15
-4 -8 4 -12 10 -9 15 3 5 10 7 15 4 5 -4 9 -10 9 -15z m-450 -120 c0 -5 -4
-10 -10 -10 -5 0 -10 5 -10 10 0 6 5 10 10 10 6 0 10 -4 10 -10z m-1145 -60
c3 -5 1 -10 -4 -10 -6 0 -11 5 -11 10 0 6 2 10 4 10 3 0 8 -4 11 -10z m1322 4
c-3 -3 -12 -4 -19 -1 -8 3 -5 6 6 6 11 1 17 -2 13 -5z m-1477 -68 c0 -3 -4 -7
-9 -11 -5 -3 -12 -1 -16 5 -3 5 1 10 9 10 9 0 16 -2 16 -4z m590 -22 c0 -8 -5
-12 -10 -9 -6 4 -8 11 -5 16 4 5 8 9 11 9 2 0 4 -7 4 -16z m60 -64 c0 -5 -2
-10 -4 -10 -3 0 -8 5 -11 10 -3 6 -1 10 4 10 6 0 11 -4 11 -10z m-220 -134 c0
-3 -4 -8 -10 -11 -5 -3 -10 -1 -10 4 0 6 5 11 10 11 6 0 10 -2 10 -4z m-740
-46 c0 -5 -5 -10 -11 -10 -5 0 -7 5 -4 10 3 6 8 10 11 10 2 0 4 -4 4 -10z
m1150 -10 c0 -5 -4 -10 -10 -10 -5 0 -10 5 -10 10 0 6 5 10 10 10 6 0 10 -4
10 -10z m-1190 -70 c0 -5 -2 -10 -4 -10 -3 0 -8 5 -11 10 -3 6 -1 10 4 10 6 0
11 -4 11 -10z m890 -300 c0 -6 -7 -24 -15 -40 -11 -21 -23 -30 -40 -30 -16 0
-25 6 -25 15 0 9 13 24 30 33 16 9 30 20 30 25 0 4 5 7 10 7 6 0 10 -5 10 -10z
m-1330 -160 c-8 -5 -18 -10 -22 -10 -5 0 -8 5 -8 10 0 6 10 10 23 10 18 0 19
-2 7 -10z m1085 -180 c3 -5 2 -10 -4 -10 -5 0 -13 5 -16 10 -3 6 -2 10 4 10 5
0 13 -4 16 -10z m-1230 -40 c-3 -5 -10 -10 -16 -10 -5 0 -9 5 -9 10 0 6 7 10
16 10 8 0 12 -4 9 -10z m55 -91 c0 -5 -7 -9 -15 -9 -8 0 -15 7 -15 15 0 9 6
12 15 9 8 -4 15 -10 15 -15z m1084 -84 c3 -8 1 -15 -4 -15 -6 0 -10 7 -10 15
0 8 2 15 4 15 2 0 6 -7 10 -15z m-54 -25 c0 -5 -2 -10 -4 -10 -3 0 -8 5 -11
10 -3 6 -1 10 4 10 6 0 11 -4 11 -10z m-30 -25 c0 -8 -7 -15 -15 -15 -8 0 -15
4 -15 8 0 5 3 12 7 15 3 4 10 7 15 7 4 0 8 -7 8 -15z m-1160 -85 c0 -5 -9 -14
-20 -20 -11 -6 -20 -7 -20 -2 0 4 5 13 12 20 7 7 16 12 20 12 4 0 8 -4 8 -10z
m330 -101 c0 -5 -4 -9 -10 -9 -5 0 -10 7 -10 16 0 8 5 12 10 9 6 -3 10 -10 10
-16z m-243 -5 c-3 -3 -12 -4 -19 -1 -8 3 -5 6 6 6 11 1 17 -2 13 -5z"/>
<path d="M12880 8595 c-7 -9 -19 -14 -26 -11 -8 3 -30 -2 -49 -10 -20 -8 -40
-12 -45 -9 -5 3 -11 1 -15 -5 -3 -5 -17 -10 -31 -10 -13 0 -24 -4 -24 -10 0
-5 -5 -10 -11 -10 -6 0 -31 -13 -56 -30 -24 -16 -49 -30 -54 -30 -5 0 -24 -7
-42 -16 -18 -9 -40 -26 -49 -38 -9 -11 -20 -21 -25 -22 -4 -1 -22 -7 -40 -13
-17 -7 -39 -23 -47 -36 -10 -15 -22 -22 -34 -18 -15 3 -22 -3 -31 -27 -9 -27
-15 -31 -34 -26 -15 3 -35 -3 -60 -19 -20 -14 -43 -25 -51 -25 -9 0 -21 -9
-28 -20 -7 -11 -29 -25 -49 -30 -20 -6 -44 -22 -57 -39 -16 -22 -20 -38 -16
-61 5 -25 10 -29 27 -24 13 4 17 2 13 -5 -4 -6 -3 -11 2 -11 6 0 12 7 16 15 3
8 12 15 20 15 8 0 47 22 88 50 40 27 89 63 108 80 29 25 33 31 20 40 -11 8 -8
9 13 4 21 -5 33 -1 48 15 11 11 24 21 29 21 6 0 12 -1 14 -2 3 -2 15 7 28 18
13 12 55 40 95 63 39 22 77 41 83 41 10 0 9 4 0 15 -11 13 -7 15 26 14 22 -1
59 6 84 16 25 9 54 18 65 18 11 1 25 9 31 16 8 10 35 16 85 18 41 1 84 5 97 8
16 4 30 -2 48 -20 14 -14 29 -25 34 -25 5 0 12 -4 15 -10 3 -5 -1 -20 -11 -32
l-16 -23 5 22 c3 13 1 25 -3 28 -5 3 -22 -14 -39 -37 -17 -23 -31 -48 -31 -54
0 -7 -12 -26 -27 -41 -16 -16 -41 -37 -56 -47 -15 -9 -25 -21 -22 -27 4 -5 3
-9 -2 -8 -4 1 -15 1 -24 0 -9 0 -21 -11 -28 -24 -7 -13 -36 -34 -64 -47 -29
-13 -74 -40 -102 -60 -27 -21 -72 -45 -98 -55 -27 -10 -58 -26 -70 -36 -12 -9
-50 -29 -84 -43 -34 -14 -68 -26 -74 -26 -7 0 -26 -11 -43 -23 -17 -13 -48
-29 -68 -36 -21 -7 -38 -17 -38 -22 0 -5 -7 -9 -15 -9 -8 0 -19 -9 -25 -19 -8
-16 -18 -19 -52 -15 -26 2 -48 -1 -57 -10 -9 -7 -27 -17 -41 -22 -14 -4 -31
-8 -38 -8 -7 -1 -16 -5 -20 -11 -4 -5 -38 -18 -77 -29 -38 -10 -77 -19 -87
-20 -9 -1 -23 -8 -31 -14 -8 -7 -21 -10 -29 -7 -9 4 -18 -1 -21 -9 -4 -10 -18
-16 -35 -16 -16 0 -32 -3 -36 -7 -4 -4 -21 -8 -38 -9 -17 -1 -33 -6 -37 -11
-3 -5 -14 -12 -24 -16 -15 -6 -18 -2 -15 16 2 16 9 22 26 21 12 0 22 5 22 12
0 6 12 20 28 30 15 10 33 24 40 31 7 7 20 13 28 13 8 0 14 4 14 9 0 6 13 18
29 27 19 11 27 23 23 32 -3 10 -1 13 7 8 6 -4 19 -2 27 5 12 10 12 14 2 21 -9
7 -4 8 14 5 22 -3 36 5 75 44 26 27 69 64 95 81 36 25 48 39 48 58 0 20 -7 27
-35 36 -19 6 -35 8 -35 5 0 -4 -13 -21 -29 -39 -17 -17 -36 -32 -43 -32 -8 0
-29 -16 -48 -35 -19 -19 -58 -49 -87 -65 -37 -22 -50 -35 -46 -46 3 -10 13
-14 25 -11 19 5 19 5 2 -14 -18 -20 -18 -20 -26 0 -4 12 -12 21 -17 21 -5 0
-47 -30 -92 -67 -46 -36 -99 -75 -117 -86 -18 -11 -36 -27 -41 -36 -5 -9 -29
-27 -53 -40 -23 -13 -66 -36 -94 -50 -28 -14 -49 -31 -47 -37 2 -6 -3 -14 -12
-17 -8 -4 -15 -2 -15 3 0 6 -12 10 -26 10 -14 0 -39 -9 -55 -21 -16 -11 -29
-27 -29 -35 0 -8 -4 -13 -9 -10 -5 3 -7 15 -4 27 5 18 2 19 -23 13 -16 -4 -33
-11 -38 -15 -6 -5 -27 -9 -48 -9 -29 0 -41 -6 -53 -24 -9 -13 -25 -26 -37 -29
-11 -3 -29 0 -39 6 -15 9 -24 9 -39 -1 -11 -6 -27 -12 -35 -12 -9 0 -14 -4
-11 -9 3 -5 -9 -9 -27 -9 -18 0 -52 -5 -76 -12 -24 -6 -51 -18 -59 -26 -12
-13 -13 -24 -3 -73 8 -39 8 -79 2 -122 -5 -35 -13 -75 -19 -89 -5 -14 -15 -45
-22 -70 -7 -25 -16 -56 -21 -69 -9 -21 -7 -23 15 -19 18 4 26 0 29 -13 3 -10
-1 -20 -9 -23 -7 -3 -16 -1 -19 4 -4 6 -17 10 -29 10 -17 0 -27 -9 -36 -30 -7
-16 -36 -52 -65 -79 -29 -28 -52 -58 -51 -68 0 -12 -7 -19 -22 -21 -14 -2 -31
-16 -40 -33 -10 -16 -24 -29 -33 -29 -9 0 -30 -7 -46 -15 -17 -9 -36 -22 -43
-30 -6 -7 -25 -17 -41 -20 -16 -4 -48 -17 -71 -31 -24 -13 -54 -29 -68 -35
-14 -6 -33 -15 -42 -20 -10 -5 -25 -9 -33 -9 -8 0 -15 -4 -15 -8 0 -4 -23 -16
-52 -27 -28 -10 -89 -24 -135 -31 -45 -6 -113 -10 -150 -7 -38 2 -87 5 -111 6
-28 1 -41 6 -38 14 3 6 -5 13 -16 15 -14 2 -30 19 -44 48 -13 25 -21 52 -19
61 3 8 7 41 10 72 2 32 0 57 -6 57 -5 0 -9 5 -9 11 0 6 6 9 13 6 7 -3 18 6 25
22 6 14 20 48 32 75 11 27 34 66 51 87 20 25 47 44 83 58 29 11 73 31 97 44
27 15 45 33 47 46 2 12 7 21 11 21 4 0 12 -5 19 -12 9 -9 26 -5 74 17 35 16
77 40 93 52 19 13 39 20 51 17 12 -3 26 1 33 10 8 9 20 16 28 16 7 0 16 6 19
14 3 8 12 12 21 9 13 -5 14 -3 3 17 -10 18 -9 24 1 31 8 5 20 2 31 -8 12 -11
25 -13 45 -8 15 4 22 10 16 12 -7 3 -13 11 -13 18 0 7 6 15 13 17 6 3 18 3 25
1 6 -3 10 -8 7 -13 -3 -4 12 -3 32 3 21 6 44 17 51 24 7 7 18 13 24 13 5 0 30
14 55 30 24 17 49 30 55 30 5 0 7 7 4 15 -3 9 0 17 7 19 6 2 21 7 32 11 18 5
17 7 -8 24 -26 17 -26 19 -11 32 12 10 18 11 21 3 2 -7 13 -10 23 -7 11 3 20
9 20 13 0 4 -12 11 -27 15 l-28 7 34 14 c18 8 38 14 43 14 5 0 7 -9 3 -19 -3
-11 -1 -22 5 -26 5 -3 10 0 10 8 0 8 7 20 15 27 8 7 15 25 15 40 0 15 -7 40
-15 56 -7 15 -23 29 -34 31 -10 1 -22 -4 -25 -12 -3 -8 -10 -15 -15 -15 -6 0
-8 6 -5 13 3 8 -1 19 -9 25 -9 8 -39 10 -83 8 -38 -3 -96 -10 -129 -16 -33 -6
-70 -18 -82 -26 -12 -7 -29 -14 -37 -14 -7 0 -27 -7 -42 -15 -16 -8 -37 -15
-46 -15 -9 0 -20 -4 -23 -10 -3 -5 -14 -10 -23 -10 -9 0 -28 -9 -42 -20 -14
-11 -33 -20 -42 -20 -10 0 -22 -8 -27 -19 -6 -10 -26 -22 -44 -25 -19 -3 -44
-17 -57 -31 -13 -14 -55 -41 -94 -61 -39 -19 -85 -52 -103 -72 -18 -20 -33
-40 -33 -44 0 -5 -9 -8 -20 -8 -11 0 -26 -12 -35 -29 -8 -16 -23 -32 -33 -35
-10 -3 -38 -30 -62 -60 -25 -30 -59 -62 -76 -72 -17 -9 -41 -36 -54 -59 -13
-23 -20 -47 -16 -53 4 -7 -12 -36 -35 -67 -23 -30 -48 -55 -55 -55 -8 0 -43
-12 -80 -26 -36 -15 -68 -33 -71 -40 -3 -8 -20 -14 -38 -14 -18 0 -38 -7 -45
-15 -7 -8 -21 -15 -31 -15 -10 0 -20 -4 -23 -8 -3 -5 -24 -8 -48 -8 -24 1 -42
4 -40 9 1 4 2 18 2 32 0 16 6 25 15 25 8 0 25 12 38 26 12 14 22 29 21 32 -1
4 5 12 13 17 8 6 20 22 28 35 8 14 26 50 40 80 15 30 33 69 40 85 8 17 21 56
29 87 13 54 13 58 -5 63 -10 4 -19 11 -19 16 0 5 7 9 15 9 8 0 15 -5 15 -11 0
-5 4 -8 9 -5 4 3 4 31 -1 63 -5 35 -19 70 -34 91 -23 30 -25 36 -14 63 10 23
10 32 -1 46 -13 15 -12 15 9 4 18 -9 22 -9 22 2 0 8 9 22 21 33 12 10 27 31
35 46 8 15 39 55 69 89 30 34 52 65 49 70 -3 5 2 12 10 15 9 3 16 15 16 25 0
10 3 18 8 17 4 -2 19 6 33 17 14 11 40 42 59 69 19 26 42 59 51 72 9 13 41 51
72 85 31 33 62 57 67 54 6 -4 26 8 44 27 18 18 46 41 62 50 16 9 36 31 44 47
8 17 25 34 38 37 12 3 22 10 22 16 0 5 5 6 11 3 6 -4 20 1 32 11 12 11 31 24
43 30 13 8 26 9 37 2 13 -7 23 -3 42 18 13 14 33 41 44 59 16 27 17 37 7 50
-10 15 -18 15 -57 5 -24 -6 -57 -16 -73 -22 -16 -6 -39 -22 -51 -34 -20 -20
-21 -23 -7 -26 14 -3 12 -7 -8 -17 -17 -10 -25 -11 -28 -2 -2 6 -8 9 -12 6 -5
-3 -7 -12 -3 -20 4 -11 -1 -14 -18 -13 -16 2 -27 -5 -35 -21 -7 -14 -23 -30
-36 -37 -13 -8 -30 -13 -39 -14 -9 0 -19 -7 -23 -15 -3 -8 -14 -15 -24 -15
-11 0 -25 -7 -32 -14 -6 -8 -34 -29 -61 -46 -27 -18 -49 -38 -49 -46 0 -8 -9
-14 -19 -14 -11 0 -23 -9 -26 -20 -3 -11 -12 -20 -19 -20 -7 0 -23 -11 -36
-25 -13 -14 -28 -25 -34 -25 -6 0 -29 -17 -52 -38 -23 -20 -58 -50 -78 -67
-20 -16 -49 -37 -65 -46 -16 -8 -36 -22 -44 -30 -8 -8 -38 -27 -66 -44 -28
-17 -51 -37 -51 -47 0 -9 6 -18 13 -21 6 -2 10 -7 7 -10 -3 -4 -16 -4 -29 0
-17 4 -19 8 -9 14 9 6 9 9 1 9 -6 0 -15 -4 -18 -10 -3 -5 -28 -19 -55 -31 -27
-11 -56 -29 -66 -40 -9 -10 -21 -19 -26 -19 -5 0 -17 -7 -25 -16 -10 -10 -24
-13 -37 -9 -12 4 -30 6 -41 6 -11 -1 -60 4 -110 11 -49 6 -121 11 -160 10 -38
-1 -81 -6 -95 -11 -14 -5 -52 -14 -85 -20 -33 -7 -78 -16 -100 -21 -22 -5 -44
-5 -49 0 -5 5 11 33 35 64 24 31 49 56 56 56 6 0 24 18 40 40 15 22 33 40 38
40 6 1 27 22 48 48 20 26 37 54 37 62 -1 10 -9 6 -25 -12 -13 -16 -29 -28 -35
-28 -5 0 -10 -8 -11 -17 0 -10 -3 -13 -5 -8 -2 6 2 32 10 58 9 31 11 49 4 53
-7 4 -4 10 6 16 9 5 21 6 27 3 6 -4 18 0 28 9 16 15 19 15 35 -3 16 -18 16
-20 -3 -33 -12 -8 -18 -18 -15 -21 3 -3 15 -1 25 6 10 6 19 15 19 19 0 5 20
37 45 72 25 36 45 70 45 75 0 6 4 11 9 11 5 0 15 15 21 34 6 19 27 54 45 78
21 25 35 54 35 71 0 15 -5 27 -13 27 -7 0 -19 -6 -26 -12 -10 -11 -11 -10 -6
5 5 12 2 17 -11 17 -11 0 -31 -6 -45 -13 -14 -8 -37 -24 -52 -37 -14 -13 -24
-26 -22 -30 2 -3 -12 -12 -30 -19 -24 -8 -43 -26 -61 -57 -14 -24 -29 -44 -33
-44 -4 0 -23 -21 -42 -46 -19 -26 -46 -64 -60 -85 -15 -22 -38 -49 -53 -60
-14 -11 -26 -29 -26 -40 0 -14 -7 -19 -30 -19 -24 0 -28 -3 -23 -17 4 -10 11
-22 17 -26 6 -5 1 -6 -11 -2 -12 3 -24 1 -28 -6 -4 -6 -3 -14 3 -18 7 -4 -1
-14 -19 -26 -16 -11 -32 -28 -35 -38 -3 -9 -10 -15 -15 -12 -5 4 -13 -5 -18
-18 -6 -14 -30 -42 -56 -63 -25 -21 -54 -57 -65 -79 -11 -22 -37 -60 -57 -83
-21 -23 -49 -56 -63 -73 -14 -17 -80 -87 -148 -157 -78 -79 -125 -136 -129
-153 -3 -17 -10 -26 -18 -22 -8 2 -21 -4 -30 -14 -9 -10 -34 -42 -56 -70 -23
-29 -47 -53 -54 -53 -7 0 -16 6 -18 13 -4 7 -6 6 -6 -5 -1 -9 -15 -28 -32 -42
-17 -14 -37 -26 -45 -26 -8 0 -17 -7 -20 -15 -4 -8 -10 -13 -14 -10 -4 3 -27
-11 -51 -30 -24 -19 -54 -35 -66 -35 -12 0 -24 -4 -27 -9 -3 -5 -25 -18 -48
-30 -24 -12 -66 -36 -94 -54 -28 -17 -60 -42 -72 -54 -12 -13 -28 -23 -35 -23
-7 0 -32 -9 -55 -20 -22 -11 -45 -20 -50 -20 -5 0 -15 -6 -21 -14 -7 -8 -34
-17 -61 -21 -28 -4 -52 -11 -56 -16 -3 -5 -21 -9 -40 -9 -19 0 -34 -4 -34 -10
0 -5 -10 -10 -22 -10 -13 -1 -41 -8 -63 -16 -22 -8 -69 -18 -105 -21 -36 -3
-75 -5 -87 -5 -13 0 -37 12 -54 26 -17 14 -34 26 -39 26 -4 0 -11 8 -15 18 -4
9 -8 39 -10 66 -2 39 3 62 28 110 17 34 41 71 53 83 13 12 39 34 59 48 19 15
32 31 29 36 -3 5 6 9 20 9 15 0 30 8 36 21 9 16 8 24 -5 39 -9 10 -29 20 -46
24 -20 4 -44 -2 -74 -16 -28 -14 -46 -30 -50 -45 -3 -13 -13 -23 -22 -23 -8 0
-30 -15 -47 -34 -18 -18 -60 -48 -94 -67 -34 -18 -62 -36 -62 -41 0 -4 -6 -5
-14 -2 -8 3 -17 1 -21 -5 -3 -6 -15 -11 -26 -11 -10 0 -19 -4 -19 -10 0 -5
-15 -10 -32 -10 -18 0 -44 -9 -58 -20 -14 -11 -33 -20 -42 -20 -10 0 -18 -3
-18 -8 0 -4 -15 -13 -32 -20 -18 -7 -40 -18 -48 -23 -8 -5 -22 -12 -30 -16 -8
-3 -27 -15 -42 -25 -14 -10 -32 -18 -40 -18 -7 -1 -31 -9 -53 -20 -22 -11 -44
-19 -48 -20 -5 0 -15 -7 -23 -15 -9 -8 -31 -15 -49 -15 -19 0 -37 -5 -40 -10
-3 -6 -27 -8 -52 -6 -25 3 -54 13 -65 23 -16 15 -19 26 -14 63 3 25 8 58 12
74 6 27 5 28 -19 23 -17 -5 -27 -2 -31 8 -3 9 0 15 8 15 8 0 16 9 19 20 3 11
10 20 16 20 6 0 11 -10 11 -22 l0 -21 24 22 c14 13 30 37 37 54 8 18 27 46 45
62 17 17 65 61 107 99 42 37 77 75 77 82 0 8 7 17 15 20 8 4 15 10 15 14 0 5
-7 16 -16 25 -9 9 -14 19 -11 22 3 3 14 -2 23 -11 9 -10 20 -14 25 -9 4 4 5
34 2 65 -4 38 -11 59 -21 63 -8 3 -53 -13 -99 -35 -63 -30 -83 -45 -83 -60 0
-13 -7 -20 -19 -20 -11 0 -22 -8 -25 -17 -3 -10 -33 -47 -65 -83 -33 -36 -63
-78 -66 -93 -4 -16 -19 -41 -33 -56 -15 -16 -33 -38 -40 -50 -7 -12 -10 -27
-6 -33 4 -7 3 -8 -4 -4 -7 4 -12 3 -12 -3 0 -5 -18 -32 -39 -59 -28 -35 -52
-54 -78 -62 -21 -6 -49 -17 -63 -23 -14 -7 -29 -18 -33 -24 -4 -7 -17 -13 -28
-13 -12 0 -32 -9 -46 -20 -14 -11 -39 -20 -54 -20 -16 0 -39 -10 -50 -21 -21
-21 -28 -22 -153 -16 -130 7 -131 7 -159 38 -21 22 -33 27 -40 20 -6 -6 -14
-11 -19 -11 -4 0 -3 12 2 26 6 14 10 29 10 34 0 5 -12 13 -27 18 -25 9 -25 11
-6 11 12 1 25 6 29 12 4 8 9 7 14 -2 5 -7 11 7 14 37 4 27 14 74 24 104 9 31
36 78 59 107 26 32 40 58 37 68 -3 8 -1 15 6 15 6 0 8 -4 5 -10 -3 -5 -2 -10
3 -10 4 0 21 16 37 36 16 20 38 40 50 44 12 5 26 24 34 47 7 21 28 55 46 76
18 20 40 37 47 37 8 0 22 8 31 18 10 10 17 26 17 36 0 9 4 15 9 12 4 -3 15 2
23 12 9 9 19 28 23 42 4 14 14 33 22 42 9 10 13 24 9 33 -3 9 -2 13 4 10 6 -4
14 4 19 17 6 17 4 27 -9 40 -10 9 -24 18 -31 20 -8 1 -25 -9 -40 -22 -14 -14
-36 -35 -50 -46 -13 -12 -33 -33 -44 -48 -11 -14 -39 -46 -62 -71 -24 -24 -44
-50 -45 -57 -2 -7 -14 -24 -28 -38 -14 -14 -31 -37 -38 -52 -6 -16 -16 -28
-22 -28 -6 0 -17 -18 -26 -39 -8 -22 -22 -42 -30 -45 -8 -3 -19 -18 -26 -33
-6 -16 -10 -35 -9 -43 2 -13 1 -13 -8 0 -8 12 -13 12 -30 -4 -12 -11 -21 -23
-21 -29 0 -5 -15 -28 -32 -51 -18 -22 -42 -48 -53 -56 -11 -8 -22 -15 -25 -15
-3 0 -29 -18 -58 -40 -29 -22 -69 -52 -88 -67 -20 -16 -42 -28 -49 -28 -7 0
-15 -7 -19 -15 -3 -8 -15 -15 -26 -15 -11 0 -29 -9 -40 -20 -11 -11 -44 -31
-73 -44 -28 -13 -61 -26 -72 -29 -11 -3 -67 -18 -124 -35 -76 -23 -109 -28
-123 -21 -12 6 -24 6 -37 -1 -11 -5 -27 -7 -35 -4 -9 3 -20 22 -26 42 -7 29
-7 38 4 44 8 4 12 16 10 25 -3 10 13 46 36 80 22 35 46 75 52 90 6 16 10 32 9
36 -1 5 3 6 8 2 6 -3 17 8 26 25 9 17 11 30 5 30 -5 0 -10 8 -10 17 0 13 3 14
12 5 7 -7 15 -12 20 -12 4 0 18 24 32 53 13 29 31 59 40 66 9 8 28 39 42 68
15 30 48 82 75 115 27 34 49 65 49 69 0 5 -7 6 -15 3 -8 -4 -15 -1 -15 6 0 7
8 10 19 7 13 -3 29 8 55 39 20 24 39 57 42 73 4 18 11 28 19 25 7 -3 27 10 44
28 22 22 30 40 28 56 -3 12 -3 21 0 19 2 -3 17 7 33 21 17 15 30 32 30 39 0 7
6 10 14 7 8 -3 32 13 56 37 32 32 40 47 33 58 -5 8 -22 18 -37 22 -19 6 -38 2
-61 -11 -18 -10 -77 -62 -129 -115 -53 -53 -96 -102 -96 -109 0 -7 -48 -58
-106 -114 -58 -56 -113 -102 -121 -102 -8 0 -23 -5 -34 -10 -10 -6 -19 -17
-19 -25 0 -8 -12 -22 -27 -32 -16 -9 -51 -39 -79 -67 -28 -28 -72 -69 -98 -91
-25 -22 -46 -46 -46 -52 0 -7 -7 -13 -15 -13 -8 0 -24 -9 -35 -20 -11 -11 -29
-20 -40 -20 -13 0 -24 -10 -31 -27 -6 -16 -11 -36 -12 -45 -1 -12 -10 -18 -27
-18 -14 0 -47 -15 -74 -33 -27 -17 -70 -44 -95 -59 -25 -14 -67 -38 -93 -52
-34 -19 -46 -30 -41 -42 4 -12 14 -14 42 -9 20 3 51 11 69 16 17 6 32 15 32
20 0 5 8 9 19 9 10 0 24 7 31 15 7 8 18 15 25 15 7 0 20 11 29 25 9 14 23 25
30 25 8 0 37 12 65 26 28 14 59 36 68 50 9 14 37 37 62 52 25 15 61 42 79 62
18 19 41 43 50 53 9 10 25 23 34 28 12 6 18 6 18 -1 0 -5 -9 -18 -20 -27 -11
-10 -20 -22 -20 -28 0 -6 -16 -28 -35 -48 -19 -20 -35 -44 -35 -52 0 -9 -7
-18 -15 -21 -8 -4 -15 -14 -15 -24 0 -11 -5 -22 -11 -25 -6 -4 -8 -13 -5 -20
2 -7 -4 -21 -15 -31 -10 -9 -19 -22 -19 -27 0 -6 -8 -20 -18 -31 -10 -12 -26
-45 -35 -75 -9 -29 -17 -61 -17 -71 0 -10 4 -20 8 -22 5 -1 15 -16 23 -32 8
-16 28 -37 44 -46 17 -10 33 -15 38 -13 4 2 7 -1 7 -8 0 -7 8 -9 23 -5 12 4
54 10 92 13 39 3 71 9 73 13 2 4 12 6 22 3 11 -3 35 2 54 11 19 9 41 16 49 16
9 0 19 5 22 11 4 6 13 8 20 5 7 -2 21 4 30 14 9 10 37 24 63 30 26 7 55 14 64
15 9 1 36 15 59 31 23 16 47 37 53 46 6 10 15 18 19 18 5 0 37 20 71 45 35 25
68 45 74 45 5 0 10 -16 10 -36 0 -20 6 -40 12 -44 7 -5 10 -15 7 -24 -3 -8 -2
-18 3 -21 6 -4 10 -16 11 -28 0 -12 3 -16 6 -9 2 6 12 12 20 12 12 0 14 -9 11
-36 -3 -27 0 -38 14 -45 10 -5 18 -16 18 -24 0 -7 16 -19 35 -25 19 -6 39 -9
45 -5 6 3 25 1 44 -6 28 -10 46 -9 102 4 38 10 85 17 104 17 19 0 46 9 60 20
14 11 39 20 55 20 17 0 41 9 55 20 14 11 32 20 41 20 9 0 22 7 29 15 7 8 20
15 29 16 10 0 11 2 4 6 -7 2 -13 8 -13 13 0 5 12 7 28 5 15 -2 40 4 55 13 24
15 29 15 37 2 5 -8 7 -24 4 -35 -3 -12 6 -37 23 -62 15 -24 33 -43 40 -43 6 0
16 -7 20 -15 5 -8 25 -21 44 -29 20 -8 39 -12 43 -9 3 4 28 10 54 14 26 4 68
12 93 18 25 5 62 18 82 27 21 10 37 21 37 26 0 4 7 5 16 1 10 -4 22 0 28 9 6
8 46 31 88 51 42 20 81 37 87 37 6 0 11 5 11 10 0 6 9 10 21 10 15 0 19 5 15
16 -4 11 -1 14 13 9 10 -3 35 2 54 11 25 12 33 21 30 35 -4 13 0 19 11 19 10
0 14 -4 11 -10 -3 -5 4 -10 15 -10 12 0 34 7 50 16 15 10 35 14 43 11 8 -3 18
-24 22 -46 4 -22 4 -50 0 -62 -4 -12 -2 -24 3 -28 6 -3 13 -18 15 -31 2 -14 7
-33 11 -42 4 -9 24 -19 46 -23 21 -4 41 -13 44 -22 4 -9 13 -13 23 -9 9 4 24
-1 33 -9 13 -11 39 -16 91 -17 56 0 75 3 84 16 7 10 22 15 36 13 13 -2 34 0
47 6 16 7 29 7 46 -2 18 -10 29 -10 45 -2 12 7 18 17 15 23 -4 7 -3 8 4 4 7
-4 42 2 80 14 37 12 81 27 97 35 17 7 60 27 96 44 36 17 70 31 76 31 6 0 25 8
42 17 17 10 36 28 42 40 7 13 20 23 30 23 9 0 45 20 80 45 35 25 84 54 107 66
24 11 46 18 48 16 3 -2 0 -16 -5 -31 -6 -14 -15 -26 -21 -26 -5 0 -16 -15 -24
-33 -7 -19 -30 -56 -51 -83 -21 -27 -45 -64 -53 -82 -15 -30 -15 -35 3 -64 10
-17 18 -42 19 -56 1 -14 12 -33 27 -45 25 -18 32 -18 98 -7 43 8 77 20 87 32
10 10 23 18 29 18 7 0 31 17 53 38 22 20 62 55 88 77 36 30 44 41 31 43 -9 2
-17 7 -17 12 0 4 7 11 16 14 9 4 22 2 29 -4 10 -8 16 -7 22 2 4 7 22 22 38 33
17 11 37 20 45 22 8 1 27 16 43 33 15 17 39 35 53 40 14 6 28 10 32 10 4 0 25
-16 47 -35 22 -19 46 -35 53 -35 7 0 15 -6 18 -14 3 -8 20 -20 37 -27 18 -7
41 -20 52 -30 11 -9 36 -20 55 -24 19 -4 40 -12 47 -17 7 -5 21 -7 31 -4 10 4
40 -3 66 -15 34 -14 51 -17 60 -10 8 7 31 7 67 2 30 -5 61 -5 69 -1 8 4 40 4
71 -2 42 -7 65 -18 95 -46 28 -26 48 -36 70 -35 17 1 42 7 55 14 13 7 27 13
31 14 4 0 31 18 60 40 29 22 74 57 99 78 28 22 69 44 100 53 30 8 78 22 108
30 30 8 61 20 68 26 10 8 13 7 13 -2 0 -9 10 -11 33 -6 17 3 44 15 59 26 15
11 31 20 36 20 5 0 15 -13 22 -29 6 -17 8 -36 4 -43 -4 -7 -7 -28 -5 -47 1
-19 13 -47 26 -63 14 -16 25 -34 25 -39 0 -5 17 -28 39 -52 21 -23 40 -49 43
-57 3 -10 16 -14 46 -11 23 1 42 -1 42 -6 0 -4 29 -9 65 -10 36 -1 65 2 65 6
0 5 30 11 68 15 37 3 78 7 92 9 20 2 24 7 22 26 -2 15 0 21 7 16 6 -3 8 -11 5
-17 -5 -7 3 -9 22 -5 16 3 43 9 59 12 17 3 75 20 130 38 55 17 102 33 105 36
3 4 15 14 27 25 19 15 25 16 38 6 8 -7 15 -16 15 -21 0 -4 -9 -11 -20 -14 -11
-3 -20 -13 -20 -21 0 -8 -8 -14 -17 -14 -11 0 -25 -16 -36 -40 -11 -23 -44
-60 -83 -91 -35 -29 -71 -63 -79 -75 -8 -12 -22 -25 -32 -28 -10 -3 -28 -24
-41 -46 -12 -22 -27 -40 -32 -40 -5 0 -21 -11 -36 -25 -15 -14 -40 -36 -56
-48 -16 -12 -43 -35 -61 -50 -18 -15 -39 -35 -48 -42 -9 -8 -18 -15 -22 -15
-3 0 -18 -11 -32 -25 -14 -14 -25 -31 -25 -37 0 -5 -12 -20 -27 -32 -15 -11
-44 -29 -65 -38 -21 -9 -38 -22 -38 -27 0 -6 -8 -20 -17 -31 -10 -11 -23 -20
-30 -20 -7 0 -13 -5 -13 -10 0 -6 -20 -31 -45 -57 -25 -25 -45 -52 -45 -60 0
-7 -7 -16 -15 -19 -8 -3 -37 -27 -64 -54 -27 -26 -62 -67 -77 -91 -16 -24 -46
-60 -68 -80 -37 -36 -38 -38 -22 -60 9 -13 16 -28 16 -34 0 -6 -3 -6 -8 1 -4
6 -17 14 -29 18 -18 6 -43 -14 -152 -121 -72 -70 -133 -134 -136 -143 -3 -9
-19 -24 -35 -33 -17 -10 -37 -32 -46 -48 -8 -16 -29 -38 -46 -49 -16 -10 -36
-29 -44 -42 -7 -12 -19 -34 -26 -48 -7 -14 -38 -50 -69 -81 -31 -32 -61 -70
-68 -87 -7 -16 -23 -34 -35 -40 -13 -6 -41 -31 -62 -57 -21 -26 -60 -71 -86
-101 -27 -30 -48 -58 -48 -62 0 -4 -22 -30 -48 -57 -26 -28 -58 -67 -71 -88
-12 -20 -36 -46 -52 -58 -16 -11 -29 -29 -29 -40 0 -11 -6 -22 -14 -25 -8 -3
-17 -16 -20 -28 -3 -12 -24 -37 -46 -55 -22 -17 -40 -38 -40 -46 0 -8 -18 -33
-39 -56 -21 -24 -37 -49 -34 -56 3 -7 -2 -13 -10 -13 -9 0 -26 -15 -38 -32
-13 -18 -28 -35 -33 -37 -5 -2 -20 -15 -33 -29 -12 -13 -20 -28 -17 -33 3 -5
-5 -13 -18 -18 -13 -5 -37 -29 -53 -52 -15 -24 -41 -63 -57 -86 -15 -23 -28
-45 -28 -49 0 -4 -10 -17 -22 -30 -13 -13 -38 -37 -55 -55 -18 -18 -33 -37
-33 -42 0 -5 -13 -25 -30 -44 -16 -18 -30 -39 -30 -45 0 -5 -14 -27 -30 -47
-17 -20 -39 -45 -49 -56 -10 -11 -27 -36 -39 -56 -16 -27 -19 -38 -10 -47 9
-9 7 -12 -10 -12 -12 0 -22 -5 -22 -11 0 -5 -4 -8 -9 -4 -5 3 -25 -16 -43 -41
-18 -25 -33 -49 -33 -53 -1 -3 -10 -24 -22 -46 -12 -23 -32 -46 -45 -53 -12
-7 -31 -24 -41 -37 -9 -13 -19 -37 -20 -54 -2 -17 -19 -47 -39 -69 -19 -21
-45 -59 -58 -84 -12 -25 -33 -51 -46 -57 -14 -6 -24 -19 -24 -31 0 -11 -7 -20
-15 -20 -8 0 -15 -9 -15 -20 0 -12 -13 -34 -30 -50 -16 -16 -30 -36 -30 -44 0
-9 -12 -30 -27 -48 -16 -18 -32 -40 -38 -49 -5 -9 -27 -41 -47 -71 -21 -30
-47 -63 -57 -72 -16 -14 -18 -23 -10 -43 5 -13 9 -27 9 -29 0 -3 -8 -4 -19 -2
-11 2 -36 -16 -67 -47 -27 -28 -59 -67 -72 -88 -12 -21 -22 -49 -22 -61 0 -17
-7 -26 -25 -30 -13 -3 -29 -15 -35 -26 -6 -11 -22 -31 -35 -46 -14 -15 -25
-33 -25 -40 0 -8 5 -14 11 -14 5 0 7 -5 3 -11 -5 -8 -9 -7 -14 1 -6 10 -15 6
-34 -15 -14 -15 -26 -34 -26 -41 0 -7 -9 -18 -20 -24 -11 -6 -20 -18 -20 -26
0 -8 -16 -30 -35 -48 -19 -19 -35 -39 -35 -46 0 -7 -16 -32 -35 -56 -19 -23
-35 -46 -35 -51 0 -6 -12 -16 -27 -23 -16 -8 -29 -15 -31 -16 -1 -1 0 -9 4
-18 5 -13 9 -14 20 -5 8 7 17 9 20 6 3 -3 -5 -11 -18 -18 -12 -7 -30 -14 -38
-15 -7 -2 -21 -12 -30 -22 -8 -11 -37 -38 -63 -61 -38 -33 -44 -41 -28 -41 12
0 21 -3 21 -7 0 -5 -10 -19 -21 -33 -20 -24 -21 -24 -16 -3 3 13 2 23 -1 23
-4 0 -24 -16 -45 -35 -21 -19 -42 -35 -47 -35 -4 0 -13 -12 -18 -27 -5 -16
-26 -45 -46 -67 l-36 -38 28 6 c26 6 26 6 8 -9 -11 -8 -17 -18 -13 -22 4 -3
15 1 25 10 10 10 23 17 29 17 6 0 22 10 37 21 15 12 32 32 36 45 6 16 18 24
32 24 14 0 37 16 60 42 21 24 38 49 38 57 0 8 5 31 12 50 7 20 13 38 15 40 1
2 8 -1 15 -6 7 -5 21 -13 30 -16 11 -4 31 9 62 41 25 26 46 55 46 65 0 9 -4
17 -10 17 -5 0 -10 4 -10 8 0 5 23 14 50 21 28 7 48 17 45 21 -3 5 -2 15 1 24
3 8 24 24 47 36 23 12 57 31 74 43 18 12 33 30 33 39 0 10 9 23 19 30 10 6 17
18 14 25 -3 7 11 29 31 48 20 18 36 39 36 44 0 6 19 32 43 58 23 26 57 62 75
81 17 19 32 38 32 44 0 5 14 21 30 35 17 13 30 34 30 45 0 11 23 43 50 70 28
28 57 63 66 79 8 16 30 43 49 60 18 17 31 37 29 44 -3 7 2 15 10 18 9 4 16 11
16 17 0 6 9 20 20 32 10 11 22 34 25 50 4 18 16 33 32 39 13 5 22 12 20 16 -3
5 -1 18 4 31 6 16 14 22 26 18 10 -3 24 -2 32 3 7 5 11 13 7 19 -3 5 1 15 8
22 8 6 18 24 21 40 3 16 13 34 21 41 12 10 20 10 35 1 16 -10 18 -9 17 5 -1
10 11 46 27 80 20 41 37 63 52 67 12 3 35 26 52 52 17 25 31 51 31 59 0 8 18
35 40 60 22 25 40 50 40 54 0 5 25 34 55 66 30 31 55 64 55 74 0 9 9 24 20 34
11 9 20 28 20 41 0 18 7 25 30 30 17 3 34 14 37 23 4 10 29 45 55 78 27 33 70
96 95 140 25 44 58 93 72 109 14 17 41 44 59 62 17 18 32 36 32 40 0 4 9 16
19 28 11 12 38 39 60 62 23 22 41 45 41 50 0 5 8 14 19 21 10 6 21 29 25 52 3
23 11 41 16 41 6 0 28 17 49 38 22 20 54 47 71 60 16 13 28 28 24 33 -3 5 -1
9 4 9 6 0 13 11 16 24 3 13 22 34 41 46 19 12 35 26 35 32 0 5 9 23 21 39 11
16 18 33 15 38 -3 4 14 25 37 45 23 20 53 45 67 57 14 11 18 17 10 13 -9 -4
-12 -3 -7 2 5 5 12 9 15 9 4 0 17 7 29 16 12 8 23 21 25 29 2 8 12 19 22 25
10 5 22 17 26 25 4 8 16 32 26 53 11 21 39 55 64 75 25 20 53 45 62 55 10 9
19 22 21 28 1 6 19 28 40 50 20 21 37 43 37 49 0 5 32 41 70 79 39 39 70 75
70 80 0 6 18 27 40 47 22 21 40 43 40 51 0 7 8 13 18 13 9 0 29 11 44 24 14
13 38 42 52 64 14 22 30 43 36 47 5 3 10 24 10 46 0 36 2 39 28 39 15 1 36 8
47 18 11 9 32 36 47 59 15 23 54 61 85 85 32 24 61 47 65 53 4 5 8 13 8 17 0
3 -8 9 -17 11 -14 4 -13 5 4 6 12 0 29 8 37 17 9 8 16 20 16 25 0 6 -4 7 -10
4 -5 -3 -10 -2 -10 3 0 6 11 12 24 16 13 3 35 24 50 46 14 22 31 40 36 40 6 0
9 6 8 13 -2 6 4 12 12 12 8 0 36 23 62 50 25 28 85 91 133 140 48 50 98 107
112 129 14 21 43 56 64 77 21 21 39 45 39 54 0 10 7 15 19 13 11 -2 28 5 38
14 10 9 37 33 59 53 23 19 41 43 40 52 0 10 5 18 13 18 8 0 16 6 19 13 2 7 -6
12 -22 12 -16 0 -26 6 -26 14 0 8 4 17 9 21 5 3 16 -2 24 -10 9 -8 22 -15 30
-15 7 0 27 15 44 33 l30 33 -28 29 c-16 15 -26 32 -23 36 3 5 9 9 14 9 5 0 17
-13 27 -30 9 -16 23 -30 30 -30 8 0 16 8 20 18 3 9 21 31 39 49 22 20 32 38
28 48 -5 11 -2 14 10 9 11 -4 27 4 46 22 16 16 30 34 30 39 1 6 22 26 47 45
25 19 95 83 155 143 60 59 111 107 114 107 2 0 21 19 43 43 24 25 36 46 31 51
-6 5 -15 4 -25 -4 -8 -7 -18 -10 -22 -6 -4 3 2 13 13 21 10 8 24 15 31 15 7 0
16 -8 21 -17 9 -15 14 -12 46 22 20 21 36 41 36 44 0 3 14 17 31 31 18 14 52
43 78 65 25 22 55 49 67 60 11 11 48 44 82 74 48 42 59 57 51 67 -8 10 -8 15
2 18 8 3 23 6 34 8 11 2 24 13 30 26 5 12 24 29 40 37 17 8 39 23 49 33 16 19
16 21 -10 41 -15 12 -25 24 -22 26 3 3 19 10 37 15 24 7 31 5 31 -5 0 -7 5
-15 12 -17 7 -3 22 5 35 16 13 11 23 27 23 37 0 9 11 24 25 33 14 9 25 12 25
7 0 -5 -5 -13 -10 -16 -6 -4 -8 -11 -4 -16 3 -6 20 -2 40 11 20 11 43 20 53
20 10 0 32 5 50 11 21 8 31 18 32 32 0 16 2 18 7 7 5 -11 17 -14 47 -9 22 3
35 7 28 8 -7 0 -10 8 -7 16 4 8 12 15 20 15 8 0 14 -4 14 -10 0 -5 9 -10 19
-10 11 0 23 9 26 21 5 14 12 18 23 13 10 -3 27 -9 38 -11 12 -3 25 0 28 6 4 6
16 11 26 11 11 0 55 11 97 25 43 14 94 35 114 45 20 11 38 17 41 15 3 -3 18 0
34 6 16 7 34 11 40 11 5 -1 20 7 32 18 12 11 25 19 29 18 4 -1 32 10 61 25 30
15 62 27 71 27 10 0 37 14 59 30 23 17 49 30 57 30 8 0 15 4 15 9 0 5 13 12
29 16 16 3 35 13 42 21 6 8 16 14 22 14 6 0 18 6 26 14 9 7 41 26 71 42 30 16
66 39 80 52 14 13 40 32 58 43 17 12 30 25 27 29 -3 5 11 12 30 16 22 4 42 16
52 30 8 13 20 24 27 24 6 0 37 21 69 46 39 31 60 56 64 75 3 16 9 29 14 29 5
0 9 6 9 13 0 6 14 28 31 47 25 28 28 36 15 38 -9 2 -14 8 -10 13 3 5 10 7 15
4 5 -4 9 -3 10 2 0 4 2 20 4 35 3 20 -3 33 -22 48 -14 11 -30 20 -36 20 -6 0
-18 7 -28 16 -16 15 -20 15 -33 1 -9 -8 -31 -15 -50 -15 -20 0 -40 6 -47 14
-6 8 -15 14 -19 14 -4 0 -13 -7 -20 -15z m68 -65 c3 -9 -1 -11 -12 -7 -11 4
-16 1 -16 -10 0 -9 -3 -14 -6 -10 -3 3 -3 15 1 27 4 12 12 19 18 17 6 -2 13
-9 15 -17z m94 -170 c-2 -16 -9 -30 -14 -30 -6 0 -7 -8 -3 -17 4 -13 3 -15 -5
-7 -8 8 -7 21 4 48 8 20 17 36 19 36 2 0 2 -13 -1 -30z m-632 -36 c0 -8 -4
-12 -10 -9 -5 3 -10 10 -10 16 0 5 5 9 10 9 6 0 10 -7 10 -16z m280 -260 c0
-9 -5 -14 -12 -12 -6 2 -14 10 -16 16 -2 7 3 12 12 12 9 0 16 -7 16 -16z
m-730 -4 c0 -5 -4 -10 -10 -10 -5 0 -10 5 -10 10 0 6 5 10 10 10 6 0 10 -4 10
-10z m-2580 -46 c0 -8 -4 -14 -9 -14 -6 0 -13 5 -16 10 -3 6 -3 15 0 20 4 6
11 8 16 5 5 -4 9 -13 9 -21z m2573 4 c4 -13 1 -26 -6 -30 -6 -4 -15 0 -20 8
-5 8 -6 22 -3 30 3 8 9 14 15 14 5 0 11 -10 14 -22z m-2733 -157 c0 -5 -7 -12
-16 -15 -13 -5 -14 -9 -4 -21 10 -12 9 -16 -5 -21 -9 -4 -27 -2 -41 4 -13 7
-24 16 -24 22 0 5 9 10 20 10 10 0 25 7 32 15 7 8 19 14 26 15 6 0 12 -4 12
-9z m-1165 -77 c-9 -9 -13 -24 -10 -35 5 -13 1 -19 -10 -19 -12 0 -15 6 -10
19 3 11 0 23 -7 27 -9 6 -5 10 12 15 14 4 29 7 33 8 5 1 1 -6 -8 -15z m1015
-27 c0 -7 -15 -29 -32 -48 -18 -20 -47 -54 -65 -75 -18 -21 -53 -65 -78 -96
-31 -38 -51 -55 -62 -51 -8 3 -18 0 -23 -7 -6 -9 -12 -9 -30 0 -12 6 -30 19
-41 28 -10 9 -19 22 -19 29 0 7 7 10 15 7 9 -4 18 2 24 18 5 13 22 30 37 38
16 8 47 26 69 40 22 14 44 30 48 37 4 7 17 13 28 13 11 0 22 6 25 13 3 8 12
14 21 14 9 0 26 11 37 26 12 14 27 26 34 26 6 1 12 -5 12 -12z m-70 -7 c0 -5
-4 -10 -10 -10 -5 0 -10 5 -10 10 0 6 5 10 10 10 6 0 10 -4 10 -10z m-1035
-30 c3 -5 1 -10 -4 -10 -6 0 -11 5 -11 10 0 6 2 10 4 10 3 0 8 -4 11 -10z
m940 -20 c-3 -5 -13 -10 -21 -10 -8 0 -14 5 -14 10 0 6 9 10 21 10 11 0 17 -4
14 -10z m2915 -30 c0 -5 -4 -10 -10 -10 -5 0 -10 5 -10 10 0 6 5 10 10 10 6 0
10 -4 10 -10z m-3890 -20 c0 -5 -4 -10 -10 -10 -5 0 -10 5 -10 10 0 6 5 10 10
10 6 0 10 -4 10 -10z m807 -47 c-9 -9 -20 -13 -24 -9 -4 4 -1 11 7 16 8 6 19
10 25 10 5 0 2 -8 -8 -17z m1559 -28 c-3 -9 0 -15 9 -15 8 0 15 5 15 11 0 8
13 9 43 4 23 -4 50 -8 59 -8 9 -1 14 -6 10 -12 -4 -5 -5 -18 -4 -27 2 -11 -6
-20 -22 -24 -14 -3 -26 -12 -26 -18 0 -7 -12 -23 -27 -37 -16 -13 -44 -33 -63
-43 -19 -11 -46 -30 -60 -44 -14 -14 -53 -37 -87 -53 -35 -15 -63 -33 -63 -39
0 -7 -8 -9 -19 -5 -10 3 -24 -1 -31 -10 -7 -8 -16 -15 -21 -15 -5 0 -9 7 -9
15 0 8 -4 15 -9 15 -5 0 -23 -13 -39 -30 -18 -18 -41 -30 -56 -30 -14 0 -26
-4 -26 -10 0 -5 -10 -10 -22 -10 -11 0 -36 -11 -54 -25 -18 -14 -40 -25 -49
-25 -9 0 -33 -11 -53 -25 -20 -14 -42 -25 -49 -25 -8 0 -22 6 -33 13 -17 10
-26 9 -51 -5 -17 -10 -35 -18 -40 -18 -6 0 -6 6 0 18 5 9 16 26 24 36 12 17
18 18 48 7 29 -10 36 -9 46 5 7 9 10 21 7 25 -3 5 4 9 15 9 13 0 42 23 73 55
28 30 57 55 64 55 7 0 15 14 19 31 6 25 11 30 27 26 11 -3 31 -1 44 5 13 6 24
15 24 19 0 4 9 11 21 14 11 4 24 18 30 31 5 14 13 23 17 20 5 -3 23 4 41 15
17 10 29 24 26 29 -3 6 1 10 9 10 8 0 27 5 43 12 15 6 36 10 46 9 10 -1 25 3
33 10 10 8 11 15 4 24 -8 10 2 14 42 17 29 3 54 11 56 17 2 6 8 11 14 11 6 0
8 -7 4 -15z m-139 -1 c-3 -3 -12 -4 -19 -1 -8 3 -5 6 6 6 11 1 17 -2 13 -5z
m323 -28 c0 -8 -5 -18 -11 -22 -6 -3 -15 -1 -19 7 -5 7 -6 17 -4 21 3 4 12 8
20 8 8 0 14 -6 14 -14z m-2230 -6 c0 -5 -3 -10 -7 -9 -5 0 -17 4 -28 9 -18 8
-17 9 8 9 15 1 27 -3 27 -9z m62 -27 c-6 -2 -10 -9 -6 -14 3 -5 13 -5 24 1 12
6 21 7 25 0 3 -5 15 -6 28 -1 12 5 47 6 77 3 30 -3 60 -11 68 -18 11 -12 10
-19 -8 -44 -12 -16 -28 -30 -36 -30 -8 0 -19 -10 -25 -23 -6 -13 -19 -27 -29
-32 -10 -6 -44 -27 -74 -48 -31 -21 -56 -42 -56 -48 0 -5 -8 -9 -17 -9 -10 0
-26 -9 -38 -20 -11 -10 -45 -41 -77 -69 -31 -27 -65 -52 -77 -56 -12 -3 -21
-15 -21 -26 0 -13 -7 -19 -23 -19 -13 0 -32 -7 -43 -15 -10 -8 -26 -15 -34
-15 -8 -1 -28 -18 -45 -40 -16 -21 -46 -47 -65 -57 -19 -10 -46 -26 -59 -35
-13 -10 -32 -18 -41 -18 -10 0 -20 -7 -24 -15 -3 -8 -16 -15 -30 -15 -13 0
-27 7 -30 16 -3 9 -6 30 -6 47 0 18 -7 41 -15 51 -8 11 -15 34 -15 50 0 17 7
42 15 56 8 14 23 44 35 68 11 24 27 50 35 59 9 8 14 20 13 25 -2 5 24 38 57
72 33 34 72 69 87 79 15 9 32 17 39 17 6 0 29 16 52 35 22 19 51 35 63 35 13
0 45 7 71 17 26 9 59 16 72 15 14 -1 29 4 34 10 7 10 10 10 14 1 2 -7 16 -13
29 -13 14 0 27 7 30 15 4 8 14 15 23 14 10 0 11 -2 3 -6z m-4435 -18 c0 -8 -4
-12 -9 -9 -4 3 -8 9 -8 15 0 5 4 9 8 9 5 0 9 -7 9 -15z m7166 -11 c-2 -5 -7
-10 -13 -12 -5 -2 -10 4 -10 13 0 9 6 15 13 13 6 -3 11 -9 10 -14z m-1112 -6
c1 -7 2 -25 3 -40 1 -15 -2 -24 -6 -22 -4 3 -8 14 -8 25 0 10 -4 19 -10 19 -5
0 -7 7 -4 15 4 8 10 15 15 15 5 0 10 -6 10 -12z m-1331 -2 c0 -3 -4 -7 -9 -11
-5 -3 -12 -1 -16 5 -3 5 1 10 9 10 9 0 16 -2 16 -4z m100 -32 c27 -9 55 -23
61 -31 7 -7 13 -28 13 -45 1 -18 -5 -33 -14 -36 -8 -3 -35 -28 -60 -55 -25
-27 -49 -56 -54 -64 -5 -9 -24 -30 -44 -47 -19 -17 -41 -44 -48 -61 -7 -16
-24 -45 -38 -63 -13 -19 -22 -40 -20 -46 3 -7 -2 -19 -11 -26 -8 -7 -15 -10
-15 -6 0 3 -8 -2 -17 -12 -10 -10 -33 -39 -51 -64 -19 -28 -30 -53 -26 -62 3
-9 2 -16 -3 -16 -5 0 -24 -20 -41 -44 -22 -31 -28 -46 -20 -49 7 -3 1 -6 -14
-6 -21 -1 -28 -7 -33 -31 -4 -16 -10 -32 -15 -35 -5 -3 -16 -19 -24 -37 -9
-17 -16 -32 -16 -34 0 -1 10 -5 23 -7 12 -3 2 -4 -23 -4 -25 1 -75 -2 -113 -7
-62 -7 -71 -6 -113 18 -26 14 -53 26 -60 26 -8 0 -46 30 -84 67 -39 36 -79 73
-90 80 -16 12 -18 17 -8 38 6 14 17 25 24 25 7 0 18 9 24 20 6 11 22 23 37 26
14 4 35 14 47 23 11 9 36 32 56 51 19 19 53 41 75 49 22 7 50 25 63 39 12 14
22 29 22 34 0 4 9 8 20 8 11 0 21 6 21 13 1 6 1 15 0 20 0 4 6 7 15 7 8 0 13
4 9 9 -3 6 14 19 37 29 24 11 56 32 72 46 16 14 35 26 42 26 7 0 21 11 32 25
11 14 24 25 28 25 5 0 23 14 41 30 18 17 37 30 44 30 6 0 35 24 64 53 29 28
66 59 82 69 15 9 34 17 41 17 7 1 35 -6 62 -15z m2399 -19 c-7 -7 -13 -5 -19
5 -5 8 -10 18 -10 23 0 4 9 2 20 -5 13 -9 16 -16 9 -23z m-3259 -31 c0 -8 -4
-12 -10 -9 -5 3 -10 10 -10 16 0 5 5 9 10 9 6 0 10 -7 10 -16z m3304 1 c-4 -8
-13 -15 -21 -15 -9 0 -13 -6 -10 -15 5 -11 -2 -14 -28 -13 -19 1 -35 5 -35 10
0 4 6 8 14 8 8 0 17 7 20 16 3 8 10 12 16 9 5 -3 18 -1 27 4 10 6 19 11 20 11
1 0 0 -7 -3 -15z m-2269 -25 c10 -11 22 -17 26 -14 5 3 9 1 9 -4 0 -6 -8 -13
-17 -18 -10 -4 -22 -6 -28 -4 -5 1 -22 2 -38 1 -17 -1 -30 5 -34 15 -4 11 1
22 12 30 10 8 26 14 35 14 9 0 25 -9 35 -20z m2145 9 c0 -6 -5 -19 -10 -30 -6
-10 -17 -19 -25 -19 -8 0 -46 -31 -84 -70 -39 -38 -76 -70 -83 -70 -7 0 -24
-16 -38 -35 -14 -19 -43 -45 -65 -58 -22 -13 -52 -31 -67 -41 -26 -17 -27 -17
-39 5 -9 17 -9 24 0 27 6 2 11 19 11 37 0 20 6 35 15 39 8 3 15 12 15 21 0 8
-4 15 -10 15 -5 0 -10 4 -10 10 0 5 7 7 15 4 10 -4 15 0 15 14 0 12 5 24 10
27 6 3 10 13 10 22 0 9 7 25 17 35 10 12 30 18 56 18 22 0 81 10 131 22 50 13
93 26 94 30 2 5 12 8 23 8 10 0 19 -5 19 -11z m-1227 -48 c17 -7 17 -8 -1 -24
-11 -10 -26 -15 -36 -11 -13 5 -14 9 -5 20 9 11 8 14 -4 14 -9 0 -19 5 -22 10
-4 7 3 8 22 4 15 -4 36 -10 46 -13z m1312 -1 c3 -6 0 -13 -9 -16 -8 -3 -25 -4
-38 -2 l-23 5 25 11 c14 6 28 11 32 11 4 1 10 -4 13 -9z m-2190 -36 c6 -6 17
-14 25 -17 12 -4 12 -6 -2 -6 -13 -1 -16 -11 -16 -46 1 -24 -3 -50 -9 -57 -6
-7 -13 -35 -16 -63 -3 -27 -8 -62 -10 -78 -2 -15 -12 -36 -21 -46 -9 -9 -16
-22 -16 -28 0 -6 7 -13 15 -17 8 -3 15 -10 15 -16 0 -6 -7 -4 -16 5 -15 15
-18 15 -35 -1 -11 -9 -19 -25 -19 -36 0 -10 4 -18 10 -18 5 0 7 -7 4 -15 -4
-10 -13 -13 -24 -10 -12 4 -25 -3 -39 -24 -12 -16 -21 -32 -21 -36 0 -4 -17
-23 -37 -41 -20 -19 -40 -34 -44 -34 -4 0 -9 -14 -11 -31 -2 -18 -10 -35 -18
-39 -8 -4 -48 -15 -88 -25 -51 -12 -77 -14 -84 -7 -6 6 -8 17 -4 24 3 7 10 20
15 28 5 8 16 31 25 50 9 19 24 49 33 65 9 17 21 41 28 55 6 14 16 34 22 45 6
11 26 50 44 87 18 37 46 82 61 100 16 18 43 52 59 76 17 23 34 40 39 37 6 -3
19 9 30 27 11 18 20 39 20 47 0 9 -6 11 -17 6 -10 -4 -27 -10 -37 -13 -15 -4
-18 -1 -13 11 4 11 2 14 -9 10 -7 -3 -14 0 -14 6 0 6 14 14 30 18 17 3 30 10
30 15 0 6 9 8 20 5 11 -3 23 -1 26 4 3 5 17 6 32 2 15 -3 32 -12 37 -19z m825
-24 c0 -5 -4 -10 -10 -10 -5 0 -10 5 -10 10 0 6 5 10 10 10 6 0 10 -4 10 -10z
m-94 -57 c-3 -3 -9 -2 -15 2 -6 3 -11 11 -11 17 0 6 6 6 15 -2 9 -7 13 -15 11
-17z m-5959 1 c-3 -3 -12 -4 -19 -1 -8 3 -5 6 6 6 11 1 17 -2 13 -5z m5083
-14 c0 -5 -2 -10 -4 -10 -3 0 -8 5 -11 10 -3 6 -1 10 4 10 6 0 11 -4 11 -10z
m-156 -84 c-3 -9 -10 -16 -15 -16 -5 0 -9 2 -9 5 0 3 6 12 13 19 6 8 13 13 15
11 1 -1 0 -10 -4 -19z m66 -1 c10 -11 9 -18 -3 -30 -14 -13 -17 -13 -32 1 -12
12 -13 19 -4 30 6 8 15 14 19 14 4 0 13 -7 20 -15z m920 -35 c0 -5 -5 -10 -11
-10 -5 0 -7 5 -4 10 3 6 8 10 11 10 2 0 4 -4 4 -10z m-2200 -26 c0 -2 -7 -4
-15 -4 -8 0 -15 4 -15 10 0 5 7 7 15 4 8 -4 15 -8 15 -10z m660 -17 c0 -7 -9
-18 -20 -24 -13 -8 -21 -9 -25 -2 -4 5 -1 16 5 24 7 8 19 15 26 15 8 0 14 -6
14 -13z m1540 -2 c0 -8 -4 -15 -10 -15 -5 0 -10 7 -10 15 0 8 5 15 10 15 6 0
10 -7 10 -15z m1146 -10 c0 -14 -4 -25 -8 -25 -4 0 -10 5 -13 10 -4 6 -4 17
-1 25 3 8 10 15 15 15 5 0 8 -11 7 -25z m-136 -24 c0 -5 -7 -11 -15 -15 -8 -3
-15 -2 -15 3 0 4 3 11 7 14 3 4 10 7 15 7 4 0 8 -4 8 -9z m40 -7 c0 -8 -5 -12
-10 -9 -6 4 -8 11 -5 16 4 5 8 9 11 9 2 0 4 -7 4 -16z m-3313 -30 c-3 -3 -12
-4 -19 -1 -8 3 -5 6 6 6 11 1 17 -2 13 -5z m93 -35 c3 -19 2 -49 -3 -67 -5
-19 -6 -37 -2 -40 3 -4 20 -6 38 -7 27 0 32 -4 38 -33 6 -30 5 -32 -14 -26
-12 4 -29 16 -39 28 -13 16 -17 18 -18 5 0 -8 14 -28 30 -44 17 -16 30 -34 30
-41 0 -7 -31 -37 -69 -66 -39 -29 -106 -75 -149 -103 -44 -27 -78 -53 -75 -57
2 -5 1 -13 -3 -19 -4 -8 -9 -7 -15 2 -7 11 -13 11 -38 -4 -16 -9 -34 -17 -39
-17 -6 0 -14 9 -17 21 -4 11 -1 35 6 52 7 18 19 39 26 48 8 10 28 43 44 75 17
32 39 64 49 71 10 7 26 27 34 44 14 28 14 30 0 25 -8 -3 -33 3 -55 13 -21 11
-41 15 -45 10 -3 -5 -9 -9 -14 -9 -4 0 -11 7 -14 16 -4 12 -1 14 13 9 13 -4
26 1 38 15 l20 20 23 -25 c13 -14 29 -25 36 -25 7 0 16 5 20 11 3 6 1 15 -7
19 -10 7 -10 11 0 24 12 14 15 14 37 -1 21 -13 24 -13 24 0 0 8 -7 18 -16 21
-8 3 -12 10 -9 16 3 5 15 10 25 10 14 0 18 -5 13 -17 -4 -11 -3 -14 5 -9 7 4
12 12 12 18 0 6 12 26 26 45 14 19 31 32 37 30 7 -2 14 -19 17 -38z m510 37
c0 -3 -4 -7 -9 -11 -5 -3 -12 -1 -16 5 -3 5 1 10 9 10 9 0 16 -2 16 -4z
m-4486 -31 c-4 -8 -7 -15 -9 -15 -2 0 -5 7 -9 15 -3 9 0 15 9 15 9 0 12 -6 9
-15z m5909 -16 c-7 -7 -19 -8 -30 -4 -16 7 -15 9 7 15 14 4 27 5 29 3 3 -2 0
-8 -6 -14z m-5953 -15 c0 -8 -2 -14 -4 -14 -2 0 -12 3 -20 6 -13 5 -14 9 -5
20 6 8 15 11 20 8 5 -3 9 -12 9 -20z m4080 -26 c0 -5 -7 -8 -15 -8 -8 0 -15 6
-15 13 0 8 3 17 7 20 4 4 10 2 15 -5 4 -7 8 -16 8 -20z m1763 -11 c-2 -4 -6
-8 -10 -9 -3 -2 -8 3 -11 11 -3 8 1 12 9 9 8 -3 13 -8 12 -11z m1282 -20 c4 5
5 2 1 -4 -5 -10 -11 -10 -26 0 -11 6 -20 16 -20 21 0 5 8 2 18 -7 10 -10 22
-14 27 -10z m-3458 -53 c-3 -3 -12 -4 -19 -1 -8 3 -5 6 6 6 11 1 17 -2 13 -5z
m2248 -53 c-8 -10 -15 -24 -15 -32 -1 -11 -2 -11 -9 1 -5 8 -11 24 -15 36 -6
18 -3 20 24 16 28 -4 30 -6 15 -21z m-2121 10 c3 -5 -1 -11 -9 -14 -9 -4 -12
-1 -8 9 3 7 7 14 8 14 2 0 6 -4 9 -9z m-4134 -31 c0 -5 -2 -10 -4 -10 -3 0 -8
5 -11 10 -3 6 -1 10 4 10 6 0 11 -4 11 -10z m4050 0 c0 -5 -5 -10 -11 -10 -5
0 -7 5 -4 10 3 6 8 10 11 10 2 0 4 -4 4 -10z m-30 -16 c0 -8 -5 -12 -10 -9 -6
4 -8 11 -5 16 4 5 8 9 11 9 2 0 4 -7 4 -16z m-2047 -15 c-3 -11 -12 -23 -19
-26 -7 -2 -23 1 -36 8 -23 13 -22 13 17 25 22 7 41 13 42 13 0 1 -1 -8 -4 -20z
m4034 -1 c-3 -8 -6 -5 -6 6 -1 11 2 17 5 13 3 -3 4 -12 1 -19z m117 7 c3 -8 4
-15 2 -15 -2 0 -9 7 -16 15 -7 9 -8 15 -2 15 5 0 12 -7 16 -15z m46 -1 c0 -8
-5 -12 -10 -9 -6 4 -8 11 -5 16 4 5 8 9 11 9 2 0 4 -7 4 -16z m30 6 c0 -5 -5
-10 -11 -10 -5 0 -7 5 -4 10 3 6 8 10 11 10 2 0 4 -4 4 -10z m-3350 -14 c0 -3
-4 -7 -9 -11 -5 -3 -12 -1 -16 5 -3 5 1 10 9 10 9 0 16 -2 16 -4z m1223 -2 c4
-4 4 -10 1 -15 -2 -4 -11 -6 -19 -2 -8 3 -15 9 -15 14 0 5 6 9 13 9 8 0 17 -3
20 -6z m3217 -56 c0 -4 -8 -8 -19 -8 -14 0 -17 6 -13 27 5 25 6 25 18 8 8 -10
14 -22 14 -27z m-1416 1 c-3 -5 -10 -7 -15 -3 -5 3 -7 10 -3 15 3 5 10 7 15 3
5 -3 7 -10 3 -15z m-6104 -23 c0 -3 -4 -8 -10 -11 -5 -3 -10 -1 -10 4 0 6 5
11 10 11 6 0 10 -2 10 -4z m5884 -21 c-4 -8 -10 -13 -15 -10 -4 3 -6 12 -3 20
4 8 10 13 15 10 4 -3 6 -12 3 -20z m-4694 -1 c0 -8 -4 -12 -10 -9 -5 3 -10 10
-10 16 0 5 5 9 10 9 6 0 10 -7 10 -16z m5160 -15 c0 -11 5 -29 11 -41 6 -11 9
-21 7 -23 -2 -2 -15 7 -30 20 -24 21 -26 26 -15 48 6 14 15 23 19 21 5 -3 8
-14 8 -25z m-2190 1 c0 -11 -4 -20 -9 -20 -5 0 -7 9 -4 20 3 11 7 20 9 20 2 0
4 -9 4 -20z m794 6 c-3 -8 -12 -17 -20 -20 -8 -3 -14 1 -14 10 0 9 -5 12 -12
8 -6 -4 -9 -3 -5 2 3 5 17 10 31 12 18 1 24 -2 20 -12z m879 -12 c-10 -7 -30
-14 -45 -14 -16 0 -28 4 -28 9 0 5 17 13 38 18 20 6 41 8 45 5 5 -2 0 -10 -10
-18z m-168 -3 c3 -5 2 -12 -2 -14 -5 -2 -21 -7 -38 -11 l-30 -7 25 21 c14 11
28 20 32 20 4 0 9 -4 13 -9z m52 3 c-3 -3 -12 -4 -19 -1 -8 3 -5 6 6 6 11 1
17 -2 13 -5z m-3597 -14 c0 -5 -4 -10 -10 -10 -5 0 -10 5 -10 10 0 6 5 10 10
10 6 0 10 -4 10 -10z m3354 -17 c4 -9 1 -20 -6 -25 -7 -4 -16 -8 -20 -8 -4 0
-10 4 -13 10 -3 5 0 16 7 24 7 9 16 15 19 16 4 0 10 -8 13 -17z m76 7 c0 -5
-4 -10 -10 -10 -5 0 -10 5 -10 10 0 6 5 10 10 10 6 0 10 -4 10 -10z m17 -30
c-6 -11 -15 -20 -19 -20 -5 0 -8 6 -8 13 0 7 5 18 12 25 6 6 15 9 19 6 5 -3 3
-14 -4 -24z m206 10 c-3 -11 -12 -20 -20 -20 -11 0 -11 4 -3 20 6 11 15 20 19
20 5 0 7 -9 4 -20z m632 0 c3 -5 1 -10 -4 -10 -6 0 -11 5 -11 10 0 6 2 10 4
10 3 0 8 -4 11 -10z m-4295 -16 c0 -2 -7 -4 -15 -4 -8 0 -15 4 -15 10 0 5 7 7
15 4 8 -4 15 -8 15 -10z m3150 -4 c0 -5 -5 -10 -11 -10 -5 0 -7 5 -4 10 3 6 8
10 11 10 2 0 4 -4 4 -10z m2120 -10 c0 -5 -9 -10 -20 -10 -11 0 -23 -1 -27 -2
-3 -2 -8 3 -10 10 -3 8 6 12 26 12 17 0 31 -4 31 -10z m-2228 -22 c-7 -7 -12
-8 -12 -2 0 6 3 14 7 17 3 4 9 5 12 2 2 -3 -1 -11 -7 -17z m1148 12 c0 -5 -2
-10 -4 -10 -3 0 -8 5 -11 10 -3 6 -1 10 4 10 6 0 11 -4 11 -10z m-770 -10 c0
-5 -4 -10 -9 -10 -6 0 -13 5 -16 10 -3 6 1 10 9 10 9 0 16 -4 16 -10z m-5220
-10 c0 -5 -7 -10 -16 -10 -8 0 -12 5 -9 10 3 6 10 10 16 10 5 0 9 -4 9 -10z
m5100 0 c0 -5 -4 -10 -10 -10 -5 0 -10 5 -10 10 0 6 5 10 10 10 6 0 10 -4 10
-10z m-1220 -26 c0 -9 -7 -14 -17 -12 -9 2 -18 9 -21 16 -2 7 5 12 17 12 12 0
21 -6 21 -16z m1319 7 c12 -8 9 -11 -12 -17 -16 -3 -30 -4 -33 -1 -4 3 -3 10
1 16 3 6 12 11 18 11 7 0 19 -4 26 -9z m-4199 -15 c0 -3 -4 -8 -10 -11 -5 -3
-10 -1 -10 4 0 6 5 11 10 11 6 0 10 -2 10 -4z m2180 -16 c0 -5 -4 -10 -10 -10
-5 0 -10 5 -10 10 0 6 5 10 10 10 6 0 10 -4 10 -10z m2090 -4 c0 -3 -4 -8 -10
-11 -5 -3 -10 -1 -10 4 0 6 5 11 10 11 6 0 10 -2 10 -4z m-4950 -37 c0 -5 -10
-9 -21 -9 -18 0 -19 2 -9 15 7 8 16 12 21 9 5 -3 9 -9 9 -15z m5904 5 c9 -8
14 -20 10 -25 -3 -5 -22 -7 -42 -3 -20 4 -41 9 -46 12 -5 3 -1 11 9 19 11 7
27 13 36 13 10 0 25 -7 33 -16z m116 -14 c0 -5 -4 -10 -10 -10 -5 0 -10 5 -10
10 0 6 5 10 10 10 6 0 10 -4 10 -10z m-60 -4 c0 -3 -4 -8 -10 -11 -5 -3 -10
-1 -10 4 0 6 5 11 10 11 6 0 10 -2 10 -4z m95 -26 c-3 -5 -11 -10 -16 -10 -6
0 -7 5 -4 10 3 6 11 10 16 10 6 0 7 -4 4 -10z m505 -15 c0 -8 -4 -15 -10 -15
-5 0 -10 7 -10 15 0 8 5 15 10 15 6 0 10 -7 10 -15z m-40 -19 c0 -3 -4 -8 -10
-11 -5 -3 -10 -1 -10 4 0 6 5 11 10 11 6 0 10 -2 10 -4z m-80 -125 c0 -5 -12
-11 -27 -14 -16 -3 -30 -4 -32 -2 -1 2 0 8 4 14 3 6 17 11 31 11 13 0 24 -4
24 -9z m-115 -41 c3 -5 1 -10 -4 -10 -6 0 -11 5 -11 10 0 6 2 10 4 10 3 0 8
-4 11 -10z m-35 -30 c0 -11 -4 -20 -9 -20 -6 0 -13 5 -16 10 -3 6 -3 15 0 20
3 6 10 10 16 10 5 0 9 -9 9 -20z m-335 -350 c-3 -5 -12 -10 -18 -10 -7 0 -6 4
3 10 8 5 16 10 18 10 2 0 0 -4 -3 -10z m-110 -50 c-3 -5 -12 -7 -20 -3 -8 3
-15 7 -15 9 0 2 9 4 21 4 11 0 18 -4 14 -10z m85 -10 c0 -5 -4 -10 -10 -10 -5
0 -10 5 -10 10 0 6 5 10 10 10 6 0 10 -4 10 -10z m-87 -73 c-1 -18 3 -27 13
-27 8 0 12 -4 9 -10 -3 -5 -21 -10 -38 -10 -28 1 -30 2 -15 14 16 11 16 14 1
28 -8 9 -12 21 -8 28 4 6 14 10 23 8 12 -3 16 -13 15 -31z m-263 -201 c0 -8
-13 -16 -31 -18 l-31 -5 23 18 c13 10 27 19 32 19 4 0 7 -6 7 -14z m-93 -98
c-3 -8 -6 -5 -6 6 -1 11 2 17 5 13 3 -3 4 -12 1 -19z m-61 -134 c-3 -9 -6 -20
-6 -25 0 -5 -7 -9 -15 -9 -8 0 -15 2 -15 4 0 2 -3 11 -6 19 -3 10 2 17 13 20
10 3 22 5 27 6 4 0 5 -6 2 -15z m-126 -64 c0 -5 -15 -10 -32 -10 -25 0 -29 3
-18 10 8 5 23 10 33 10 9 0 17 -4 17 -10z m-70 -126 c0 -8 -4 -12 -10 -9 -5 3
-10 10 -10 16 0 5 5 9 10 9 6 0 10 -7 10 -16z m-20 -39 c0 -8 -4 -15 -10 -15
-5 0 -10 7 -10 15 0 8 5 15 10 15 6 0 10 -7 10 -15z m3 -49 c-21 -19 -39 -33
-41 -31 -2 2 1 13 8 24 6 12 16 21 23 21 7 0 19 10 26 23 8 13 16 17 18 10 2
-6 -13 -27 -34 -47z m-43 14 c-8 -5 -19 -10 -25 -10 -5 0 -3 5 5 10 8 5 20 10
25 10 6 0 3 -5 -5 -10z m-20 -70 c0 -5 -4 -10 -10 -10 -5 0 -10 5 -10 10 0 6
5 10 10 10 6 0 10 -4 10 -10z m-480 -451 c0 -10 1 -22 2 -26 1 -5 -6 -9 -15
-11 -13 -3 -17 4 -17 32 0 27 3 34 15 30 8 -4 15 -15 15 -25z m-70 -110 c0 -5
-4 -9 -10 -9 -5 0 -10 7 -10 16 0 8 5 12 10 9 6 -3 10 -10 10 -16z m-60 -9 c0
-5 -4 -10 -10 -10 -5 0 -10 5 -10 10 0 6 5 10 10 10 6 0 10 -4 10 -10z m25
-20 c3 -5 1 -10 -4 -10 -6 0 -11 5 -11 10 0 6 2 10 4 10 3 0 8 -4 11 -10z
m-295 -375 c11 -13 10 -14 -4 -9 -9 3 -16 10 -16 15 0 5 2 9 4 9 2 0 9 -7 16
-15z m-145 -155 c3 -5 1 -10 -4 -10 -6 0 -11 5 -11 10 0 6 2 10 4 10 3 0 8 -4
11 -10z m-145 -274 c0 -3 -4 -8 -10 -11 -5 -3 -10 -1 -10 4 0 6 5 11 10 11 6
0 10 -2 10 -4z m-280 -288 c0 -5 -4 -8 -10 -8 -5 0 -10 10 -10 23 0 18 2 19
10 7 5 -8 10 -18 10 -22z m-110 -252 c0 -2 -7 -6 -15 -9 -8 -4 -17 -2 -20 3
-4 6 3 10 14 10 12 0 21 -2 21 -4z m-820 -987 c0 -5 -4 -9 -10 -9 -5 0 -10 7
-10 16 0 8 5 12 10 9 6 -3 10 -10 10 -16z"/>
<path d="M2492 8539 c-12 -5 -25 -15 -28 -24 -5 -11 -15 -13 -45 -9 -21 4 -39
3 -39 0 0 -4 7 -15 16 -23 13 -13 13 -17 2 -24 -8 -6 0 -9 23 -9 21 0 42 7 50
16 7 9 21 13 35 10 13 -4 27 0 35 10 7 8 21 13 31 11 10 -3 20 -2 23 3 3 4 -1
12 -8 17 -6 6 -26 15 -42 20 -17 6 -40 7 -53 2z m18 -35 c0 -8 -5 -12 -10 -9
-6 4 -8 11 -5 16 4 5 8 9 11 9 2 0 4 -7 4 -16z"/>
<path d="M8235 7900 c3 -5 8 -10 11 -10 2 0 4 5 4 10 0 6 -5 10 -11 10 -5 0
-7 -4 -4 -10z"/>
<path d="M19590 7843 c-19 -19 -51 -43 -71 -53 -19 -10 -41 -26 -48 -34 -8 -9
-19 -16 -26 -16 -6 0 -31 -18 -55 -40 -23 -21 -47 -41 -54 -44 -6 -2 5 -5 25
-5 20 -1 42 5 48 12 6 8 8 17 4 20 -3 4 2 8 13 8 10 1 23 1 27 0 4 -1 29 14
55 33 26 19 61 46 77 60 17 15 45 38 63 52 17 14 30 30 26 35 -3 5 -15 9 -27
8 -12 -1 -38 -17 -57 -36z"/>
<path d="M17226 7801 c-4 -5 -2 -12 3 -15 5 -4 12 -2 15 3 4 5 2 12 -3 15 -5
4 -12 2 -15 -3z"/>
<path d="M19360 7630 c0 -5 5 -10 11 -10 5 0 7 5 4 10 -3 6 -8 10 -11 10 -2 0
-4 -4 -4 -10z"/>
<path d="M14331 7407 c-9 -11 -8 -17 4 -27 12 -10 16 -9 21 5 4 9 2 21 -3 26
-6 6 -14 5 -22 -4z"/>
<path d="M11266 7339 c3 -6 1 -21 -6 -34 -7 -13 -10 -31 -6 -40 3 -9 11 -13
17 -9 6 3 16 0 21 -7 7 -11 11 -11 15 -1 3 7 23 12 48 12 25 0 47 6 55 15 7 8
16 12 21 9 5 -2 20 3 34 12 16 10 34 14 50 10 14 -4 25 -2 25 4 0 5 9 10 19
10 11 0 22 4 25 9 3 5 -4 11 -17 15 -12 3 -49 0 -82 -6 -33 -6 -67 -18 -76
-25 -14 -11 -18 -11 -30 3 -10 12 -23 15 -56 10 -34 -4 -43 -2 -43 9 0 8 -5
15 -11 15 -5 0 -7 -5 -3 -11z"/>
<path d="M10040 7206 c0 -2 7 -7 16 -10 8 -3 12 -2 9 4 -3 6 -10 10 -16 10 -5
0 -9 -2 -9 -4z"/>
<path d="M13681 6766 c-7 -9 -8 -17 -2 -20 5 -3 12 0 15 6 5 11 7 11 12 0 3
-6 10 -9 15 -6 6 3 5 11 -2 20 -6 8 -15 14 -19 14 -4 0 -13 -6 -19 -14z"/>
<path d="M2725 6500 c-3 -5 -1 -10 4 -10 6 0 11 5 11 10 0 6 -2 10 -4 10 -3 0
-8 -4 -11 -10z"/>
<path d="M1375 6400 c-3 -5 -1 -10 4 -10 6 0 11 5 11 10 0 6 -2 10 -4 10 -3 0
-8 -4 -11 -10z"/>
<path d="M5937 1403 c-4 -3 -7 -11 -7 -17 0 -6 5 -5 12 2 6 6 9 14 7 17 -3 3
-9 2 -12 -2z"/>
<path d="M5245 800 c-3 -5 -1 -10 4 -10 6 0 11 5 11 10 0 6 -2 10 -4 10 -3 0
-8 -4 -11 -10z"/>
<path d="M5185 758 c-11 -6 -23 -17 -27 -23 -4 -7 -20 -18 -36 -24 -15 -6 -33
-21 -41 -33 -10 -17 -10 -22 0 -29 9 -5 4 -10 -17 -15 -16 -4 -50 -25 -76 -47
-26 -22 -45 -44 -42 -48 3 -5 11 -9 18 -9 7 0 19 11 26 25 8 14 19 24 26 21 6
-2 16 6 22 19 7 14 23 26 42 30 18 4 51 26 74 48 23 23 50 54 59 70 13 19 14
27 5 27 -7 0 -22 -6 -33 -12z"/>
<path d="M4910 529 c0 -5 5 -7 10 -4 6 3 10 8 10 11 0 2 -4 4 -10 4 -5 0 -10
-5 -10 -11z"/>
<path d="M4887 499 c-6 -10 -17 -19 -23 -19 -7 0 -19 -12 -29 -26 -9 -14 -25
-34 -36 -45 -10 -10 -19 -26 -19 -34 0 -8 6 -15 14 -15 7 0 25 9 40 21 14 11
24 24 21 28 -2 5 4 16 14 25 9 9 21 13 24 10 4 -4 11 5 17 20 5 15 14 25 19
21 5 -3 13 0 16 6 4 5 5 12 2 15 -2 3 -14 6 -26 9 -14 2 -26 -3 -34 -16z"/>
<path d="M4730 340 c-6 -11 -16 -20 -22 -20 -6 0 -42 -21 -80 -46 -38 -26 -71
-51 -74 -56 -4 -5 -1 -15 5 -21 9 -9 16 -8 29 1 9 7 27 16 40 22 12 5 22 16
22 24 0 8 -6 17 -12 20 -7 3 -4 5 7 5 11 -1 28 -1 37 0 9 0 19 10 23 20 3 11
14 22 23 25 9 3 23 15 30 26 10 17 10 20 -3 20 -8 0 -19 -9 -25 -20z"/>
<path d="M4414 112 c-6 -4 -14 -17 -18 -29 -6 -19 -4 -22 11 -16 10 3 26 13
36 21 9 8 17 19 17 24 0 4 -8 8 -17 8 -10 0 -23 -4 -29 -8z"/>
</g>
</svg>
